<svg version="1.1" xmlns="http://www.w3.org/2000/svg" viewBox="0 0 670.2578125000002 458.849609375"
  width="1340.5156250000005" height="917.69921875">
  <!-- svg-source:excalidraw -->
  <defs>
    <style>
      @font-face {
        font-family: "Virgil";
        src: url("https://excalidraw.com/Virgil.woff2");
      }

      @font-face {
        font-family: "Cascadia";
        src: url("https://excalidraw.com/Cascadia.woff2");
      }
    </style>
  </defs>
  <rect x="0" y="0" width="670.2578125000002" height="458.849609375" fill="#ffffff"></rect>
  <g stroke-linecap="round" transform="translate(247.4375 12.037109375) rotate(0 206.4101562500001 106.77734375)">
    <path
      d="M-1.34 -1.64 C138.44 -0.76, 274.37 -1.16, 413.91 -0.93 M-0.25 -0.4 C150.65 1.95, 302.41 1.09, 413.07 -0.82 M414.91 0.97 C416.85 79.62, 417.04 156.83, 410.74 216.78 M413.78 0.38 C416.98 60.02, 415.7 119.16, 412.7 211.94 M414.95 212.54 C303.99 216.36, 198.75 213.32, 2.15 211.78 M412.66 212.5 C248.5 211.9, 85.37 211.71, 0.85 214.58 M-2.66 211.51 C-3.77 151.75, -1.23 85.53, -0.91 1.01 M-0.05 212.75 C-5.01 132.02, -2.54 51.15, 1.24 0.55"
      stroke="#1e1e1e" stroke-width="1" fill="none"></path>
  </g>
  <g stroke-linecap="round" transform="translate(10 10) rotate(0 112.3984375 108.314453125)">
    <path
      d="M2.77 2.08 C49.09 1.87, 106.63 0.57, 227.51 1.09 M0.24 0.88 C52.66 -0.8, 101.58 -1.41, 225.92 0.34 M223.67 -1.32 C230.84 46.26, 227.51 95.48, 226.45 213.85 M223.99 -1.29 C225.52 83.16, 226.29 165.84, 224.83 215.69 M223.21 217.29 C165.24 217.61, 100.73 220.32, -1.56 215.2 M223.41 216.68 C144.62 218.1, 59.42 214.81, -0.91 215.73 M1.25 218.42 C0.52 139.07, 3.76 63.6, -0.05 -2.3 M1.25 216.06 C-4.51 140.65, -3.28 63.29, 0.3 1.52"
      stroke="#1e1e1e" stroke-width="1" fill="none"></path>
  </g>
  <g stroke-linecap="round" transform="translate(433.9453125 232.220703125) rotate(0 112.3984375 108.314453125)">
    <path
      d="M0.39 0.3 C46.1 4.99, 96.1 1.77, 221.8 -0.98 M0.63 1.22 C66.79 -2.43, 134.56 -1.95, 223.34 0.66 M224.94 -0.62 C226.42 76.38, 226.44 154.8, 222.8 218.97 M224.99 -0.17 C223.95 67.44, 223.93 136.35, 226.24 217.17 M227.6 217.78 C174.09 217.3, 118.62 221.84, -1.86 217.23 M225.51 215.02 C139.48 215.22, 54.79 214.41, 1.45 216.08 M1.27 215.51 C-2.14 155.17, 2.06 95.09, -2.5 -0.6 M-0.22 215.36 C2.01 130.73, 1.52 43.92, -1.35 -0.94"
      stroke="#1e1e1e" stroke-width="1" fill="none"></path>
  </g>
  <g stroke-linecap="round" transform="translate(10.4765625 235.13671875) rotate(0 206.4101562500001 106.77734375)">
    <path
      d="M0.34 -1.99 C91.18 3.84, 183.24 4.13, 410.75 -1.65 M-0.99 -0.53 C159.48 3.05, 317.44 3.44, 413.18 0.57 M412.97 0.69 C411.47 57.23, 414.45 111.5, 414.74 214.29 M414.44 0.72 C412.69 56.53, 412.69 113.76, 411.7 212 M412.27 213.1 C329.12 218.5, 248.78 217.37, -1.71 212.87 M412.87 213.33 C285.55 212.87, 160.03 212.94, 0.56 213.08 M2.19 211.13 C-0.61 142.74, 1.22 68.08, -3.22 -0.87 M-0.56 212.64 C1.53 152.34, 0.33 93.07, -0.43 1.14"
      stroke="#1e1e1e" stroke-width="1" fill="none"></path>
  </g>
  <g stroke-opacity="0.8" fill-opacity="0.8" stroke-linecap="round"
    transform="translate(271.9138522224721 110.55921267875146) rotate(0 19.46006150034225 18.378946972545407)">
    <path
      d="M0.27 12.16 C0.27 12.16, 0.27 12.16, 0.27 12.16 M0.27 12.16 C0.27 12.16, 0.27 12.16, 0.27 12.16 M1.76 17.13 C2.95 12.91, 9.75 10.63, 14.24 1.62 M0.64 18.53 C4.95 13.49, 8.22 9.34, 13.05 3.72 M2.18 25.28 C6.62 16.68, 13.96 5.27, 20.49 -0.05 M1.7 23.15 C6.61 15.52, 13.88 9.38, 19.6 0.98 M1 28.08 C6.9 23.42, 12.35 14.75, 26.53 2.78 M3.29 27.69 C10.08 20.02, 16.11 14.07, 24.29 2.63 M7.1 31.01 C13.86 20.99, 20.15 13.8, 29.91 2.13 M5.56 29.51 C14.67 20.22, 22.18 12.4, 29.49 3.01 M9.07 32.41 C15.75 25.7, 21.58 16.69, 33.63 4.9 M7.92 33.71 C15.71 25.62, 22.53 18, 32.88 5.84 M11.65 34.6 C19.43 27.37, 28.51 16.96, 37.29 10.05 M12.7 35.06 C19.71 25.46, 28.72 16.46, 35.97 8.15 M18.14 37.48 C22.89 32.14, 26.12 27.42, 36.2 13.33 M16.98 36.11 C21.28 30.95, 24.44 25.84, 36.47 13.66 M22.24 35.47 C24.18 30.77, 28.28 27.07, 39.65 16.24 M21.79 36.86 C28.37 29.14, 33.32 22.02, 38.06 16.34 M29.86 33.77 C30.66 32.54, 31.55 30.7, 36.77 25.55 M29.6 33.66 C31.34 31.74, 33.03 29.78, 36.16 26.05"
      stroke="#ffffff" stroke-width="0.5" fill="none"></path>
    <path
      d="M22.59 0.94 C26.58 1.25, 31.22 3.41, 33.82 6.11 C36.42 8.81, 38.04 13.2, 38.17 17.16 C38.3 21.12, 36.98 26.73, 34.6 29.87 C32.23 33.02, 27.81 35.23, 23.92 36.01 C20.04 36.79, 15.09 36.24, 11.31 34.57 C7.54 32.89, 3.15 29.67, 1.29 25.95 C-0.56 22.23, -1.18 15.92, 0.19 12.25 C1.56 8.58, 5.79 6, 9.52 3.93 C13.25 1.86, 19.95 0.17, 22.57 -0.16 C25.19 -0.49, 25.28 1.6, 25.23 1.94 M26.35 1.9 C30.04 3.32, 33.07 7.3, 35.16 10.52 C37.25 13.73, 39.43 17.58, 38.9 21.2 C38.36 24.82, 35.19 29.46, 31.95 32.25 C28.7 35.04, 23.48 37.82, 19.43 37.95 C15.37 38.09, 10.99 35.77, 7.6 33.05 C4.21 30.34, -0.15 25.62, -0.92 21.68 C-1.68 17.75, 0.6 13.04, 3.03 9.44 C5.47 5.84, 9.72 1.51, 13.68 0.08 C17.65 -1.36, 24.64 0.36, 26.84 0.81 C29.04 1.27, 27.07 2.31, 26.88 2.81"
      stroke="#000000" stroke-width="1" fill="none"></path>
  </g>
  <g stroke-linecap="round">
    <g stroke-opacity="0.8" fill-opacity="0.8"
      transform="translate(283.8061120282364 147.31710662384268) rotate(0 11.218277899964619 14.752284973772191)"
      fill-rule="evenodd">
      <path
        d="M0 0 C0 0, 0 0, 0 0 M0 0 C0 0, 0 0, 0 0 M0.06 7.01 C2.62 2.85, 4.52 1.09, 6.37 1.1 M0.33 6.5 C1.47 4.77, 3.4 1.5, 6.21 -0.1 M3.31 13.19 C2.5 7.08, 4.79 4.63, 14.16 -1.53 M0.25 10.52 C4.67 8.5, 7.54 1.39, 10.88 0.38 M0.27 16.26 C2.98 10.76, 16.44 4.42, 17.65 -2.98 M1.46 18.7 C5.27 12.67, 13.54 3.14, 19.07 -3.45 M1.78 24.16 C2.93 21.86, 7.89 10.64, 18.17 0.54 M-1.07 24.7 C6.99 14.03, 15.8 6.3, 22.33 -0.06 M-0.85 27.52 C5.67 26.1, 11 21.4, 20.14 8.48 M-0.09 30.07 C9.11 21.97, 17.73 12.4, 20.29 6.33 M5.66 34.03 C10.88 26.05, 10.6 25.12, 20.26 12.27 M3.3 33.67 C11.57 24.59, 17.4 16.49, 23.34 10.13 M7.56 32.26 C14.01 25.11, 19.24 26.24, 23.64 20.17 M8.86 32.26 C13.67 27.61, 16.15 23.13, 22.88 18.86 M16.43 32.33 C15.92 31.5, 17.36 26.09, 22.24 22.36 M13.93 31.17 C18.57 29.16, 21.46 26.23, 23.63 23"
        stroke="#ffffff" stroke-width="0.5" fill="none"></path>
      <path
        d="M0.63 0.31 C0.28 4.05, -1.29 15.25, -1.01 20.54 C-0.73 25.84, -1.33 30.74, 2.3 32.09 C5.93 33.44, 17.44 32.23, 20.77 28.66 C24.09 25.08, 22.21 15.78, 22.25 10.64 C22.3 5.51, 23.42 -0.61, 21.03 -2.16 C18.65 -3.7, 11.56 1.15, 7.92 1.35 C4.29 1.56, 0.46 -0.43, -0.76 -0.94 M-2.48 -2 C-3.39 1.21, -4.52 10.72, -3.82 16.99 C-3.11 23.25, -2.55 33.4, 1.75 35.6 C6.04 37.8, 19.14 34.32, 21.96 30.18 C24.78 26.04, 19.57 16.61, 18.68 10.78 C17.79 4.95, 18.22 -2.81, 16.62 -4.78 C15.02 -6.75, 12.45 -1.47, 9.08 -1.05 C5.71 -0.63, -1.58 -2.89, -3.6 -2.25"
        stroke="#000000" stroke-width="1" fill="none"></path>
    </g>
  </g>
  <mask></mask>
  <g stroke-linecap="round">
    <g stroke-opacity="0.8" fill-opacity="0.8"
      transform="translate(284.28992806604515 179.65501555830855) rotate(0 -7.392787841070685 16.55984476399857)">
      <path
        d="M1.91 1.65 C0.28 10.53, -1.96 19.31, -1.92 31.34 M-0.27 -0.33 C-0.12 8.12, -1.52 18.27, -0.03 29.69 M-1.49 29.77 C-3.33 30.35, -8.54 31.73, -14.13 31.88 M-0.78 29.97 C-5.9 31.77, -10.77 32.67, -15.33 33.31"
        stroke="#000000" stroke-width="1" fill="none"></path>
    </g>
  </g>
  <mask></mask>
  <g stroke-linecap="round">
    <g stroke-opacity="0.8" fill-opacity="0.8"
      transform="translate(304.39831099375795 177.88074647645146) rotate(0 7.392787841070799 17.890546575391312)">
      <path
        d="M0.53 0.81 C-0.97 8.25, -0.42 17.94, 0.37 31.47 M0.21 -0.6 C-0.82 12.03, 1.19 21.94, 0.11 32.84 M1.67 31.22 C5.52 33.44, 12.53 33.75, 15.83 36.1 M0.73 32.52 C4.67 33.35, 7.29 34.14, 14.92 36.03"
        stroke="#000000" stroke-width="1" fill="none"></path>
    </g>
  </g>
  <mask></mask>
  <g stroke-linecap="round">
    <g stroke-opacity="0.8" fill-opacity="0.8"
      transform="translate(305.2854455346866 146.83103754395404) rotate(0 2.809259379606999 6.06208602967817)">
      <path
        d="M-1.43 -0.13 C2.31 10.41, 6.4 18.03, 9.59 23.7 M-0.94 0.83 C3.2 6.04, 4.15 13.88, 9.55 23.82 M7.64 24.16 C9.36 14.3, 9.94 8.28, 7.99 -5.62 M9.17 24.78 C7.83 16.28, 8.86 8.1, 9.26 -6.54 M9.41 -5.91 C7.6 -7.44, 6.01 -8.54, 3.87 -9.78 M8.98 -5.88 C7.63 -7.16, 6 -8.42, 3.76 -10.14 M3.68 -9.6 C2.28 -10.87, 0.47 -11.65, -3.01 -11.7 M4.1 -9.73 C2.2 -10.98, 0.14 -11.37, -3.58 -12.13"
        stroke="#000000" stroke-width="1" fill="none"></path>
    </g>
  </g>
  <mask></mask>
  <g stroke-linecap="round">
    <g stroke-opacity="0.8" fill-opacity="0.8"
      transform="translate(313.56536791668566 144.16963392116855) rotate(0 -2.8092593796069423 -1.3307018113925153)">
      <path d="M-0.21 0.24 C-1.94 -1.01, -3.6 -1.93, -5.76 -2.57 M0.18 -0.1 C-1.43 -0.42, -2.48 -1.33, -5.68 -2.51"
        stroke="#000000" stroke-width="1" fill="none"></path>
    </g>
  </g>
  <mask></mask>
  <g stroke-linecap="round">
    <g stroke-opacity="0.8" fill-opacity="0.8"
      transform="translate(281.0371014159748 145.94390300302553) rotate(0 -4.139961190999713 23.065498064140968)">
      <path
        d="M-0.22 -0.47 C-1.53 6.1, -5.64 13.66, -9.48 20.6 M-0.48 0.9 C-2 8.14, -6.43 17.9, -8.77 22.01 M-6.86 22.91 C-8.27 29.79, -7.13 36.86, -4.02 47.32 M-8.1 22.82 C-7.14 30.19, -6.3 38.89, -5.21 46.96"
        stroke="#000000" stroke-width="1" fill="none"></path>
    </g>
  </g>
  <mask></mask>
  <g stroke-linecap="round">
    <g stroke-opacity="0.8" fill-opacity="0.8"
      transform="translate(274.82715962947566 176.69790042188038) rotate(0 2.0699805954996577 3.2528266500710856)">
      <path d="M0.26 -0.14 C1.31 2.45, 2.66 4.19, 4.57 6.95 M0.25 -0.11 C0.95 1.81, 1.95 3.14, 4.13 6.62"
        stroke="#000000" stroke-width="1" fill="none"></path>
    </g>
  </g>
  <mask></mask>
  <g stroke-opacity="0.8" fill-opacity="0.8"
    transform="translate(292.2304683994472 125.20213474889147) rotate(0 0.000025946748678506992 0.000025946748678506992)"
    stroke="none">
    <path fill="#000000"
      d="M 1.57,-1.57 Q 1.57,-1.57 1.77,-1.27 1.98,-0.98 2.09,-0.64 2.20,-0.29 2.19,0.05 2.18,0.41 2.05,0.75 1.93,1.09 1.70,1.37 1.48,1.65 1.18,1.84 0.87,2.03 0.52,2.12 0.18,2.21 -0.17,2.18 -0.53,2.15 -0.86,2.01 -1.19,1.87 -1.46,1.63 -1.73,1.39 -1.90,1.07 -2.08,0.76 -2.15,0.41 -2.21,0.05 -2.17,-0.29 -2.12,-0.65 -1.96,-0.97 -1.80,-1.29 -1.54,-1.54 -1.29,-1.80 -0.97,-1.96 -0.65,-2.12 -0.29,-2.17 0.06,-2.21 0.41,-2.15 0.76,-2.08 1.07,-1.90 1.39,-1.73 1.63,-1.46 1.87,-1.19 2.01,-0.86 2.15,-0.53 2.18,-0.17 2.21,0.18 2.12,0.52 2.03,0.87 1.84,1.18 1.65,1.48 1.37,1.70 1.09,1.93 0.75,2.05 0.41,2.18 0.05,2.19 -0.30,2.20 -0.64,2.09 -0.98,1.98 -1.27,1.77 -1.57,1.56 -1.57,1.57 -1.57,1.57 -1.73,1.35 -1.90,1.14 -2.01,0.90 -2.12,0.66 -2.16,0.39 -2.21,0.13 -2.20,-0.13 -2.18,-0.40 -2.10,-0.65 -2.02,-0.91 -1.88,-1.14 -1.74,-1.36 -1.55,-1.55 -1.36,-1.74 -1.14,-1.88 -0.91,-2.02 -0.65,-2.10 -0.40,-2.18 -0.13,-2.20 0.13,-2.21 0.39,-2.16 0.66,-2.12 0.90,-2.01 1.14,-1.90 1.35,-1.73 1.57,-1.57 1.57,-1.57 L 1.57,-1.57 Z">
    </path>
  </g>
  <g stroke-opacity="0.8" fill-opacity="0.8"
    transform="translate(302.9044643952785 122.95639204273249) rotate(0 0 -0.37429045102632585)" stroke="none">
    <path fill="#000000"
      d="M 2.12,-0.66 Q 2.12,-0.66 2.15,-0.13 2.18,0.40 1.96,0.88 1.74,1.36 1.32,1.69 0.91,2.02 0.38,2.12 -0.13,2.21 -0.64,2.05 -1.14,1.90 -1.52,1.52 -1.90,1.14 -2.05,0.64 -2.21,0.13 -2.12,-0.38 -2.02,-0.91 -1.69,-1.32 -1.36,-1.74 -0.88,-1.96 -0.39,-2.18 0.13,-2.15 0.66,-2.11 1.11,-1.84 1.57,-1.56 1.84,-1.11 L 2.12,-0.66 Z">
    </path>
  </g>
  <g stroke-linecap="round">
    <g stroke-opacity="0.8" fill-opacity="0.8"
      transform="translate(300.596533670554 130.55609219444227) rotate(0 -3.142662557040694 1.7459236428005056)">
      <path d="M-0.33 0.29 C-1.34 0.88, -4.96 2.74, -5.98 3.32 M0.14 0.14 C-0.89 0.79, -4.95 3.16, -6.1 3.69"
        stroke="#000000" stroke-width="1" fill="none"></path>
    </g>
  </g>
  <mask></mask>
  <g stroke-opacity="0.8" fill-opacity="0.8" stroke-linecap="round"
    transform="translate(452.471292075777 325.7557532915308) rotate(0 20.694066229631915 19.544395883541142)">
    <path
      d="M3.1 9.32 C3.1 9.32, 3.1 9.32, 3.1 9.32 M3.1 9.32 C3.1 9.32, 3.1 9.32, 3.1 9.32 M1.89 18.12 C5.07 12.35, 9.93 8.81, 15.3 2.2 M1.57 17.46 C5.66 14.03, 7.51 9.61, 15.99 1.47 M-0.01 21.96 C10 14.06, 14.33 7.59, 19.38 0.58 M1.13 22.9 C7.62 16.82, 11.86 11.62, 20.01 1.39 M4.14 25.05 C11.42 19.93, 19.09 9.2, 27.23 3.11 M4.26 27.21 C9.15 21.02, 14.96 13.99, 24.63 3.03 M5.84 32.16 C13.16 22.85, 23.62 11.63, 29.18 2.92 M5.46 30.7 C12.82 23.84, 18.87 14.48, 30.46 1.71 M9.12 35.61 C15.13 24.54, 24.16 13.62, 31.26 6.21 M6.95 34.46 C14.85 27.97, 20.84 19.67, 33.37 6.69 M10.39 35.78 C16.19 28.35, 21.2 22.19, 37.51 8.67 M11.88 35.49 C19.43 27.74, 27.44 17.26, 36.18 8.21 M14.12 37.56 C25.2 26.08, 32.47 16.14, 37.86 13.06 M15.42 37.87 C21.5 31.2, 25.95 24.41, 37.89 11.71 M18.64 40.15 C26.39 31.6, 30.67 27.91, 39.85 17.2 M19.88 39.05 C24.82 30.85, 32.08 24.95, 38.82 16.46 M23.82 37.53 C30.82 33.89, 34.83 26.29, 38.27 23.13 M25.8 39.06 C28.75 34.95, 34.81 28.92, 39.59 21.33 M32.67 36.37 C33.38 35.38, 34.21 34.25, 34.88 34.09 M32.71 36.46 C33.22 35.91, 33.47 35.3, 34.48 34.13"
      stroke="#ffffff" stroke-width="0.5" fill="none"></path>
    <path
      d="M14.91 1.3 C18.9 -0.08, 25.42 0.6, 29.32 2.26 C33.22 3.93, 36.44 7.72, 38.3 11.29 C40.16 14.86, 41.31 19.61, 40.48 23.66 C39.65 27.72, 36.57 32.92, 33.3 35.63 C30.03 38.34, 25.14 40.04, 20.85 39.92 C16.57 39.8, 10.94 37.88, 7.6 34.89 C4.26 31.9, 1.56 26.25, 0.8 22 C0.04 17.74, 0.39 12.84, 3.04 9.38 C5.69 5.92, 13.85 2.85, 16.7 1.25 C19.55 -0.34, 19.9 -0.42, 20.14 -0.19 M12.79 1.04 C16.46 -0.36, 23.15 0.66, 27.48 1.89 C31.81 3.12, 36.7 4.88, 38.77 8.45 C40.85 12.01, 40.44 18.88, 39.94 23.27 C39.44 27.67, 39.08 31.98, 35.78 34.84 C32.48 37.7, 24.71 40.27, 20.17 40.44 C15.62 40.6, 11.9 38.51, 8.49 35.83 C5.09 33.15, 0.91 28.83, -0.27 24.38 C-1.45 19.93, -0.96 12.96, 1.42 9.14 C3.8 5.32, 12.2 2.51, 14 1.45 C15.8 0.38, 12.06 2.29, 12.23 2.74"
      stroke="#000000" stroke-width="1" fill="none"></path>
  </g>
  <g stroke-linecap="round">
    <g stroke-opacity="0.8" fill-opacity="0.8"
      transform="translate(465.1176658827744 364.8445450586137) rotate(0 11.929653245967415 15.687759377341933)"
      fill-rule="evenodd">
      <path
        d="M0 0 C0 0, 0 0, 0 0 M0 0 C0 0, 0 0, 0 0 M-1.06 7.61 C0.62 2.45, 5.26 1.15, 4.31 0.86 M0.22 6.5 C1.21 3.59, 3.88 1.83, 5.81 0.23 M0.22 10.65 C4.76 6.63, 9.78 3.82, 7.96 -1.53 M-0.39 11.02 C3.44 9.55, 6.04 5.99, 10.83 -0.04 M-2.65 18.49 C8.26 12.16, 11.78 9.18, 20.22 -4.11 M1.48 17.04 C6.4 10.37, 9.3 7.14, 16.95 -3.65 M-0.56 22.69 C8.66 12.8, 15.18 9.57, 20.84 -1.62 M1.24 23.92 C6.67 16.05, 13.55 7.08, 22.73 0.28 M-1.81 31.96 C5.57 25.84, 12.44 16.75, 23.78 6.43 M0.79 28.81 C6.06 23.7, 13.3 15.45, 23.73 5.95 M1.56 31.01 C5.33 27.1, 13.34 20.69, 25.38 7.25 M3.01 33.05 C5.62 30.37, 12.47 22.75, 22.77 9.5 M4.72 34.71 C6.65 27.86, 13.86 30.3, 26.02 17.13 M5.36 33.61 C9.83 29.02, 13.91 24.3, 22.82 12.92 M13.43 32.22 C16.7 33.17, 14.51 27.6, 26.68 20.49 M13.94 36.14 C15.54 30.48, 17.36 29.08, 22.76 20.37 M17.87 32.48 C20.21 32.66, 20.21 31.86, 21.93 28.36 M18.62 33.47 C19.23 32.22, 20.58 31.86, 22.23 28.8"
        stroke="#ffffff" stroke-width="0.5" fill="none"></path>
      <path
        d="M-1.76 1.34 C-1.27 4.6, 0.44 15.02, 0.89 20.77 C1.35 26.52, -2.78 34.17, 0.95 35.83 C4.67 37.5, 19 34.81, 23.26 30.76 C27.51 26.72, 26.89 17.1, 26.49 11.57 C26.08 6.05, 23.4 -0.84, 20.83 -2.38 C18.25 -3.92, 14.14 1.6, 11.06 2.34 C7.99 3.08, 3.83 2.17, 2.36 2.06 M2.47 -0.4 C2.86 1.96, -0.41 11.38, -0.88 16.72 C-1.35 22.06, -4.68 29.05, -0.35 31.66 C3.99 34.26, 21 35.68, 25.13 32.37 C29.26 29.06, 24.59 18.03, 24.44 11.79 C24.3 5.55, 27.51 -3.18, 24.27 -5.06 C21.03 -6.95, 8.83 -0.77, 4.99 0.47 C1.15 1.71, 2.13 2.57, 1.23 2.38"
        stroke="#000000" stroke-width="1" fill="none"></path>
    </g>
  </g>
  <mask></mask>
  <g stroke-linecap="round">
    <g stroke-opacity="0.8" fill-opacity="0.8"
      transform="translate(463.13398844419055 365.7803386939595) rotate(0 -0.7861580560885386 13.364686953506123)">
      <path
        d="M1.26 0.68 C-2.71 8.09, -10.42 14.61, -20.42 26.88 M0.84 0.74 C-4.57 8.39, -11.22 15.31, -19.32 26.54 M-17.75 27.5 C-10.67 25.72, 0.09 21.19, 6.53 20.31 M-20.3 27.24 C-9.13 24.94, -1.31 23.08, 7.42 20.82 M6.43 20.52 C8.76 20.2, 10.98 21.81, 14.32 22.53 M6.82 20.07 C9.56 21.02, 12.06 22.08, 13.64 22.62 M13.82 22.42 C15.42 20.87, 16.21 20.09, 18.13 18.67 M13.88 22.44 C14.92 21.39, 16.17 20.64, 17.92 19.29"
        stroke="#000000" stroke-width="1" fill="none"></path>
    </g>
  </g>
  <mask></mask>
  <g stroke-linecap="round">
    <g stroke-opacity="0.8" fill-opacity="0.8"
      transform="translate(487.9765830165902 363.8935593593467) rotate(0 11.16344439645809 6.603727671143986)">
      <path
        d="M1.78 1.7 C1.98 10.68, 5.48 17.78, 9.14 28.11 M0.81 0.6 C3.58 10.16, 7.69 20.39, 10.35 27.3 M7.95 28.14 C9.65 16.56, 12 7.68, 17.49 -13 M10.39 27.13 C10.74 18.07, 13.53 8.34, 15.91 -12.85 M16.44 -14.39 C18.44 -10.47, 19.75 -8.71, 22.95 -3.32 M16.67 -13.41 C18.11 -10.62, 18.77 -8.4, 22.34 -3.7 M22.83 -4.23 C20.26 -2.53, 18.85 -1.38, 15.8 0.78 M22.27 -3.57 C20.33 -1.76, 17.98 0, 15.79 1.26"
        stroke="#000000" stroke-width="1" fill="none"></path>
    </g>
  </g>
  <mask></mask>
  <g stroke-linecap="round">
    <g stroke-opacity="0.8" fill-opacity="0.8"
      transform="translate(465.3352310012384 398.17005060480903) rotate(0 -5.503106392620339 20.2828778470859)">
      <path
        d="M-1.31 1.88 C0.11 11.15, 1.46 23.41, 3.92 34.71 M-0.29 -0.09 C1.27 12.14, 2.83 25.24, 1.59 33.89 M1.28 32.56 C-3.41 35.85, -7.32 38.69, -14.3 39.18 M1.64 33.79 C-2.71 36.32, -8.93 38.96, -13.85 39.99"
        stroke="#000000" stroke-width="1" fill="none"></path>
    </g>
  </g>
  <mask></mask>
  <g stroke-linecap="round">
    <g stroke-opacity="0.8" fill-opacity="0.8"
      transform="translate(486.7187301268482 397.22666093750274) rotate(0 5.817569615055845 19.653951402215114)">
      <path
        d="M-0.92 0.15 C-1.26 15.08, 0.04 29.05, -0.41 37.15 M0.18 -0.19 C0.14 13.36, -2.07 26.46, -1.5 34.79 M-2.2 35.68 C4.71 37.39, 8.51 37.09, 14.33 40.83 M-1.49 36.08 C2.98 37.21, 7.98 37.43, 13.95 39.37"
        stroke="#000000" stroke-width="1" fill="none"></path>
    </g>
  </g>
  <mask></mask>
  <g stroke-opacity="0.8" fill-opacity="0.8"
    transform="translate(472.13335684022616 342.1317925127039) rotate(0 0.000027592088315486762 0.000027592088315486762)"
    stroke="none">
    <path fill="#000000"
      d="M 1.57,-1.57 Q 1.57,-1.57 1.77,-1.27 1.98,-0.98 2.09,-0.64 2.20,-0.29 2.19,0.05 2.18,0.41 2.05,0.75 1.93,1.09 1.70,1.37 1.48,1.65 1.18,1.84 0.87,2.03 0.52,2.12 0.18,2.21 -0.17,2.18 -0.53,2.15 -0.86,2.01 -1.19,1.87 -1.46,1.63 -1.73,1.39 -1.90,1.07 -2.08,0.76 -2.15,0.41 -2.21,0.05 -2.17,-0.29 -2.12,-0.65 -1.96,-0.97 -1.80,-1.29 -1.54,-1.54 -1.29,-1.80 -0.97,-1.96 -0.65,-2.12 -0.29,-2.17 0.06,-2.21 0.41,-2.15 0.76,-2.08 1.07,-1.90 1.39,-1.73 1.63,-1.46 1.87,-1.19 2.01,-0.86 2.15,-0.53 2.18,-0.17 2.21,0.18 2.12,0.52 2.03,0.87 1.84,1.18 1.65,1.48 1.37,1.70 1.09,1.93 0.75,2.05 0.41,2.18 0.05,2.19 -0.30,2.20 -0.64,2.09 -0.98,1.98 -1.27,1.77 -1.57,1.56 -1.57,1.57 -1.57,1.57 -1.73,1.35 -1.90,1.14 -2.01,0.90 -2.12,0.66 -2.16,0.39 -2.21,0.13 -2.20,-0.13 -2.18,-0.40 -2.10,-0.65 -2.02,-0.91 -1.88,-1.14 -1.74,-1.36 -1.55,-1.55 -1.36,-1.74 -1.14,-1.88 -0.91,-2.02 -0.65,-2.10 -0.40,-2.18 -0.13,-2.20 0.13,-2.21 0.39,-2.16 0.66,-2.12 0.90,-2.01 1.14,-1.90 1.35,-1.73 1.57,-1.57 1.57,-1.57 L 1.57,-1.57 Z">
    </path>
  </g>
  <g stroke-opacity="0.8" fill-opacity="0.8"
    transform="translate(484.0741074630132 339.743642388146) rotate(0 0 -0.3980250207596612)" stroke="none">
    <path d="" stroke="#ffffff" stroke-width="0.5" fill="none"></path>
    <path fill="#000000"
      d="M 2.12,-0.66 Q 2.12,-0.66 2.15,-0.13 2.18,0.40 1.96,0.88 1.74,1.36 1.32,1.69 0.91,2.02 0.38,2.12 -0.13,2.21 -0.64,2.05 -1.14,1.90 -1.52,1.52 -1.90,1.14 -2.05,0.64 -2.21,0.13 -2.12,-0.38 -2.02,-0.91 -1.69,-1.32 -1.36,-1.74 -0.88,-1.96 -0.39,-2.18 0.13,-2.15 0.66,-2.11 1.11,-1.84 1.57,-1.56 1.84,-1.11 L 2.12,-0.66 Z">
    </path>
  </g>
  <g stroke-linecap="round">
    <g stroke-opacity="0.8" fill-opacity="0.8"
      transform="translate(477.0065361061962 349.380780001776) rotate(180.707313349537 3.651491938357708 -1.3693094768841547)"
      fill-rule="evenodd">
      <path
        d="M0 0 C0 0, 0 0, 0 0 M0 0 C0 0, 0 0, 0 0 M5.64 -0.39 C5.8 -0.58, 5.96 -0.71, 6.3 -1.15 M5.64 -0.39 C5.87 -0.69, 6.14 -0.95, 6.3 -1.15 M0 0 C0 0, 0 0, 0 0 M0 0 C0 0, 0 0, 0 0 M5.64 -0.39 C5.44 -0.56, 5.27 -0.71, 4.89 -1.05 M5.64 -0.39 C5.36 -0.63, 5.08 -0.88, 4.89 -1.05"
        stroke="#ffffff" stroke-width="0.5" fill="none"></path>
      <path
        d="M0.3 0.26 C0.76 -0.21, 1.88 -2.37, 3.03 -2.53 C4.18 -2.68, 6.48 -0.95, 7.2 -0.64 M0.03 0.09 C0.45 -0.33, 1.74 -2.98, 2.89 -3.04 C4.04 -3.1, 6.16 -0.72, 6.92 -0.27"
        stroke="#000000" stroke-width="1" fill="none"></path>
    </g>
  </g>
  <mask></mask>
  <g stroke-opacity="0.8" fill-opacity="0.8" stroke-linecap="round"
    transform="translate(39.04758807147323 108.1877763903658) rotate(0 18.817592714308205 17.772170896846546)">
    <path
      d="M3.12 9.34 C3.12 9.34, 3.12 9.34, 3.12 9.34 M3.12 9.34 C3.12 9.34, 3.12 9.34, 3.12 9.34 M-1.1 18.96 C3.66 13.38, 8.23 7.67, 16.1 3.37 M0.41 18.78 C4.43 12.91, 9.17 9.98, 14.21 1.23 M-0.47 24.54 C8.65 14.16, 13.73 7.38, 22.34 2.01 M0.92 23.73 C5.95 18.03, 12.85 10.73, 20.06 1.26 M5.46 25.53 C11.35 18.25, 19.94 10.35, 24.6 1.36 M4.62 26.35 C9.49 20.06, 17.48 11, 24.79 2.02 M5.49 31.8 C14.84 21.8, 20.37 10.5, 27.3 5.54 M6.53 31.01 C15.73 19.15, 23.84 8.91, 28.92 3.29 M8.61 33.79 C19.38 24.17, 27.15 12.36, 32.71 6.51 M10.35 32.7 C16.69 23.91, 25.14 15.37, 32.99 5.1 M13.07 34.79 C20.5 24.96, 25.4 19.12, 34.6 6.59 M14.19 34.68 C21.94 23.83, 30.61 13.62, 35.76 7.64 M17.89 34.66 C22.51 28.02, 28 22.58, 37.11 11.42 M18.64 35.61 C23.11 29.75, 27.51 24.79, 35.77 13.62 M22.47 34.6 C25.19 29.59, 32.65 25.83, 36.96 19.22 M23.1 35.65 C27.43 31.53, 31.83 25.13, 38.11 18.89"
      stroke="#ffffff" stroke-width="0.5" fill="none"></path>
    <path
      d="M23.67 0.72 C27.36 1.3, 32.45 3.9, 34.87 7.21 C37.28 10.51, 38.69 16.63, 38.16 20.54 C37.62 24.45, 34.63 28.01, 31.65 30.67 C28.67 33.32, 24.36 36.33, 20.27 36.47 C16.19 36.61, 10.6 33.85, 7.14 31.51 C3.69 29.17, 0.25 26.09, -0.46 22.44 C-1.17 18.78, 0.85 12.98, 2.9 9.6 C4.95 6.22, 7.83 3.52, 11.84 2.17 C15.85 0.82, 24.33 1.53, 26.97 1.5 C29.61 1.47, 27.82 1.64, 27.68 2 M12.37 0.02 C16.05 -0.92, 23.96 0.5, 27.61 1.9 C31.26 3.3, 32.54 4.98, 34.28 8.42 C36.02 11.87, 38.64 18.5, 38.05 22.54 C37.46 26.59, 34.29 30.72, 30.74 32.68 C27.2 34.65, 21.13 34.74, 16.78 34.33 C12.43 33.92, 7.4 32.6, 4.65 30.2 C1.89 27.8, 0.46 23.47, 0.26 19.92 C0.06 16.38, 1.03 12.08, 3.44 8.92 C5.86 5.77, 13.09 2.1, 14.75 0.98 C16.42 -0.15, 13.76 1.86, 13.44 2.16"
      stroke="#000000" stroke-width="1" fill="none"></path>
  </g>
  <g stroke-linecap="round">
    <g stroke-opacity="0.8" fill-opacity="0.8"
      transform="translate(50.54722806355062 143.73211818405935) rotate(0 10.847909420725415 14.265242185230079)"
      fill-rule="evenodd">
      <path
        d="M0 0 C0 0, 0 0, 0 0 M0 0 C0 0, 0 0, 0 0 M-0.1 6.56 C1.54 6.08, 4.01 3.72, 5.48 0.91 M-1.08 6.34 C1.73 4.2, 2.83 2.67, 5.67 -0.34 M0.32 14.34 C3.74 7.36, 6.42 3.06, 13.99 1.91 M0.48 12.89 C4.16 6.09, 8.69 2.09, 11.68 -1.99 M-1.42 20.46 C6.56 10.36, 13.02 6.04, 14.43 1.98 M1.27 18.78 C7.11 10.48, 12.7 4.92, 16.08 -3.84 M-0.16 23.3 C8.44 18.07, 9.39 7.51, 21.39 3.79 M0.92 23.83 C7.83 19.24, 10.58 11.32, 18.97 4.04 M0.17 27.39 C6.52 27.41, 9.8 12.71, 22.82 8.97 M0.8 28.81 C4.78 25, 10.33 21.33, 20.73 5.63 M8.88 33.72 C4.87 28.81, 14.41 26.07, 17.49 11.07 M6.21 29.59 C9.91 25.69, 14 23.71, 22.96 12.69 M10.02 33.45 C12.44 30.59, 17.55 23.49, 21.93 21.17 M9.29 33.34 C13.24 27.7, 17.08 24.45, 20.38 16.58 M17.41 29.34 C17.79 29.68, 19.47 26.81, 20.04 24.92 M16.09 29.73 C17.22 28.92, 18.27 27.48, 19.8 25.51"
        stroke="#ffffff" stroke-width="0.5" fill="none"></path>
      <path
        d="M1.66 1.47 C2.29 4.07, 2.21 10.5, 1.91 15.43 C1.6 20.37, -2.61 28.38, -0.18 31.06 C2.26 33.74, 12.57 34.72, 16.5 31.5 C20.42 28.27, 23.05 17.02, 23.37 11.69 C23.7 6.37, 20.53 1.67, 18.46 -0.45 C16.39 -2.57, 14.24 -0.67, 10.96 -1.04 C7.67 -1.4, 0.24 -3.19, -1.27 -2.63 M-0.88 -0.2 C-0.29 2.73, 0.88 12.26, 0.68 18.06 C0.48 23.86, -4.59 33.17, -2.08 34.57 C0.43 35.97, 11.92 30.13, 15.73 26.47 C19.55 22.81, 19.83 17.39, 20.81 12.62 C21.79 7.84, 24.22 -0.72, 21.63 -2.17 C19.04 -3.63, 8.17 2.91, 5.28 3.9 C2.38 4.89, 5.31 4.37, 4.25 3.78"
        stroke="#000000" stroke-width="1" fill="none"></path>
    </g>
  </g>
  <mask></mask>
  <g stroke-linecap="round">
    <g stroke-opacity="0.8" fill-opacity="0.8"
      transform="translate(48.944093408162644 144.12564694869616) rotate(0 -2.712492783735456 9.343030699533358)">
      <path
        d="M-1.32 -0.13 C-7.17 5.08, -14.18 14.77, -21.7 18.48 M-0.45 -0.94 C-6.7 7.27, -15.02 13.29, -20.94 19.55 M-20.27 19.97 C-14.6 17.91, -7.06 13.23, 3.87 13.78 M-21.08 19.11 C-12.44 17.18, -4.81 13.79, 4.01 11.74 M5.24 12.61 C6.79 12.73, 9.02 13.02, 11 14.41 M4.57 12.24 C5.81 12.52, 7.37 12.92, 10.96 14.4 M10.64 14.52 C12.15 14.36, 14.61 13.58, 15.94 12.37 M10.56 14.6 C12.36 13.95, 14.12 13.28, 16.48 12.83"
        stroke="#000000" stroke-width="1" fill="none"></path>
    </g>
  </g>
  <mask></mask>
  <g stroke-linecap="round">
    <g stroke-opacity="0.8" fill-opacity="0.8"
      transform="translate(72.4523642005363 146.5367516453499) rotate(0 17.781897137821375 11.452747309105376)">
      <path
        d="M0.53 -1.78 C5.15 9.6, 7.8 16.59, 11.81 24.81 M0.67 0.84 C2.68 6.55, 6.42 13.13, 10.96 22.95 M9.7 24.07 C11.72 15.9, 15.52 13.61, 22.87 -0.62 M11.34 23.32 C12.48 17.6, 14.62 13.61, 22.39 1.29 M22.43 1.13 C25.24 1.66, 27.17 3.4, 28.8 4.77 M21.97 1.22 C25.05 2.42, 27.91 3.83, 29.56 5.1 M29.12 5.36 C32.01 4.12, 33.01 2.55, 35.7 2.14 M29.27 4.9 C31.17 3.85, 33.48 3.16, 35.45 1.98"
        stroke="#000000" stroke-width="1" fill="none"></path>
    </g>
  </g>
  <mask></mask>
  <g stroke-linecap="round">
    <g stroke-opacity="0.8" fill-opacity="0.8"
      transform="translate(51.13458159187712 175.55815045941756) rotate(0 -6.576819552445187 16.013125866822833)">
      <path
        d="M1.32 1.2 C0.24 7.77, 1.37 17.86, -0.12 26.26 M-0.1 0.37 C1.06 6.46, 0.53 11.24, 0.1 27.88 M-0.84 26.07 C-5.38 30.32, -9.45 29.41, -15.15 32.96 M0.12 26.57 C-4.91 28.65, -9.11 30.62, -13.56 32.51"
        stroke="#000000" stroke-width="1" fill="none"></path>
    </g>
  </g>
  <mask></mask>
  <g stroke-linecap="round">
    <g stroke-opacity="0.8" fill-opacity="0.8"
      transform="translate(69.43529686824604 174.12840707845112) rotate(0 7.2916912429282945 18.300715276369118)">
      <path
        d="M0 -0.21 C1.04 8.3, -0.73 11.89, -2.45 31.65 M0.76 0.87 C-0.14 11.69, -0.95 24.01, 0.07 29.73 M-1.38 31.77 C5.48 31.13, 9.04 35.98, 15.87 37.42 M-1.26 30.05 C4.84 32.66, 10.32 35.27, 15.88 36.74"
        stroke="#000000" stroke-width="1" fill="none"></path>
    </g>
  </g>
  <mask></mask>
  <g stroke-opacity="0.8" fill-opacity="0.8"
    transform="translate(57.33518645035042 123.24732290393706) rotate(0 0.00002509012361429086 0.00002509012361429086)"
    stroke="none">
    <path fill="#000000"
      d="M 1.57,-1.57 Q 1.57,-1.57 1.77,-1.27 1.98,-0.98 2.09,-0.64 2.20,-0.29 2.19,0.05 2.18,0.41 2.05,0.75 1.93,1.09 1.70,1.37 1.48,1.65 1.18,1.84 0.87,2.03 0.52,2.12 0.18,2.21 -0.17,2.18 -0.53,2.15 -0.86,2.01 -1.19,1.87 -1.46,1.63 -1.73,1.39 -1.90,1.07 -2.08,0.76 -2.15,0.41 -2.21,0.05 -2.17,-0.29 -2.12,-0.65 -1.96,-0.97 -1.80,-1.29 -1.54,-1.54 -1.29,-1.80 -0.97,-1.96 -0.65,-2.12 -0.29,-2.17 0.06,-2.21 0.41,-2.15 0.76,-2.08 1.07,-1.90 1.39,-1.73 1.63,-1.46 1.87,-1.19 2.01,-0.86 2.15,-0.53 2.18,-0.17 2.21,0.18 2.12,0.52 2.03,0.87 1.84,1.18 1.65,1.48 1.37,1.70 1.09,1.93 0.75,2.05 0.41,2.18 0.05,2.19 -0.30,2.20 -0.64,2.09 -0.98,1.98 -1.27,1.77 -1.57,1.56 -1.57,1.57 -1.57,1.57 -1.73,1.35 -1.90,1.14 -2.01,0.90 -2.12,0.66 -2.16,0.39 -2.21,0.13 -2.20,-0.13 -2.18,-0.40 -2.10,-0.65 -2.02,-0.91 -1.88,-1.14 -1.74,-1.36 -1.55,-1.55 -1.36,-1.74 -1.14,-1.88 -0.91,-2.02 -0.65,-2.10 -0.40,-2.18 -0.13,-2.20 0.13,-2.21 0.39,-2.16 0.66,-2.12 0.90,-2.01 1.14,-1.90 1.35,-1.73 1.57,-1.57 1.57,-1.57 L 1.57,-1.57 Z">
    </path>
  </g>
  <g stroke-opacity="0.8" fill-opacity="0.8"
    transform="translate(68.19318697230597 121.07572279954547) rotate(0 0 -0.3619333507319311)" stroke="none">
    <path fill="#000000"
      d="M 2.12,-0.66 Q 2.12,-0.66 2.15,-0.13 2.18,0.40 1.96,0.88 1.74,1.36 1.32,1.69 0.91,2.02 0.38,2.12 -0.13,2.21 -0.64,2.05 -1.14,1.90 -1.52,1.52 -1.90,1.14 -2.05,0.64 -2.21,0.13 -2.12,-0.38 -2.02,-0.91 -1.69,-1.32 -1.36,-1.74 -0.88,-1.96 -0.39,-2.18 0.13,-2.15 0.66,-2.11 1.11,-1.84 1.57,-1.56 1.84,-1.11 L 2.12,-0.66 Z">
    </path>
  </g>
  <g stroke-linecap="round">
    <g stroke-opacity="0.8" fill-opacity="0.8"
      transform="translate(61.766480988276044 129.83899477000807) rotate(180.707313349537 3.3203860146733746 -1.2451447555025368)"
      fill-rule="evenodd">
      <path
        d="M0 0 C0 0, 0 0, 0 0 M0 0 C0 0, 0 0, 0 0 M5.64 -0.39 C5.64 -0.39, 5.64 -0.39, 5.64 -0.39 M5.64 -0.39 C5.64 -0.39, 5.64 -0.39, 5.64 -0.39 M0 0 C0 0, 0 0, 0 0 M0 0 C0 0, 0 0, 0 0 M5.64 -0.39 C5.18 -0.82, 4.61 -1.26, 4.13 -1.71 M5.64 -0.39 C5.29 -0.72, 4.9 -1.01, 4.13 -1.71"
        stroke="#ffffff" stroke-width="0.5" fill="none"></path>
      <path
        d="M-0.16 -0.33 C0.24 -0.68, 1.6 -2.18, 2.73 -2.19 C3.86 -2.21, 5.91 -0.75, 6.61 -0.42 M0.4 0.26 C0.75 -0.16, 1.58 -2.44, 2.57 -2.66 C3.57 -2.88, 5.6 -1.35, 6.36 -1.04"
        stroke="#000000" stroke-width="1" fill="none"></path>
    </g>
  </g>
  <mask></mask>
  <g stroke-opacity="0.8" fill-opacity="0.8" stroke-linecap="round"
    transform="translate(32.35666357452527 337.4960438924534) rotate(0 18.817592714308176 17.772170896846546)">
    <path
      d="M1.79 10.83 C1.79 10.83, 1.79 10.83, 1.79 10.83 M1.79 10.83 C1.79 10.83, 1.79 10.83, 1.79 10.83 M2.31 16.02 C5.07 11.47, 10.28 7.24, 13.99 3.7 M0.26 17.93 C4.85 13, 9.61 7.51, 15.25 2.24 M1.01 24.52 C9.14 14.07, 17.08 6.35, 20.74 2.28 M0.71 24.07 C6.98 15.98, 12.64 10.8, 20.04 2.58 M5.61 26.35 C8.64 22.73, 12.91 18.5, 25.69 1.37 M3.62 26.72 C11.26 18.68, 19.1 9.14, 23.76 3.54 M6.11 31.65 C11.5 24.62, 19.58 16.15, 30 2.12 M5.97 31.09 C11.44 22.55, 18.94 16.99, 28.2 4.73 M10.28 34.13 C14.86 25.26, 20.78 16.18, 32.85 5.51 M8.77 34.29 C15.29 26.06, 21.02 19.4, 33.09 6.32 M14.53 36.06 C21.49 26.47, 29.06 15.22, 35.75 7.87 M12.56 33.69 C21.08 25.34, 27.19 17.81, 34.94 9.86 M17.68 35.85 C22.72 26.36, 32.59 19.79, 37.4 13.85 M17.77 35.82 C23.04 28.45, 30.61 20.11, 36.62 14.69 M22.33 32.97 C28.04 30.39, 32.32 24.43, 36.58 17.43 M22.75 34.72 C27.46 31.11, 30.53 25.67, 36.81 18.26 M31.51 31.63 C32.5 30.94, 33.01 30.1, 34.54 28.18 M31.41 31.51 C32.6 30.49, 33.49 29.54, 34.25 28.5"
      stroke="#ffffff" stroke-width="0.5" fill="none"></path>
    <path
      d="M9.58 2.38 C12.78 0.6, 18.32 0.58, 22.51 1.24 C26.71 1.91, 32.35 3.51, 34.74 6.36 C37.13 9.21, 37.19 14.3, 36.85 18.34 C36.52 22.38, 35.38 27.77, 32.72 30.61 C30.06 33.45, 24.97 34.9, 20.89 35.37 C16.81 35.83, 11.72 35.51, 8.23 33.39 C4.74 31.26, 1.07 26.36, -0.04 22.64 C-1.15 18.92, -0.59 14.74, 1.57 11.09 C3.73 7.43, 10.37 2.48, 12.93 0.7 C15.48 -1.08, 16.6 0.11, 16.9 0.39 M15.3 0.75 C18.92 0.08, 24.07 1.87, 27.73 3.63 C31.39 5.39, 36.06 8.12, 37.27 11.31 C38.49 14.51, 36.8 19.04, 35.02 22.82 C33.24 26.59, 29.74 31.93, 26.59 33.97 C23.44 36, 19.97 35.91, 16.13 35.02 C12.29 34.12, 6.43 31.75, 3.54 28.58 C0.64 25.42, -1.22 19.79, -1.25 16.02 C-1.27 12.25, 0.7 8.51, 3.38 5.97 C6.07 3.44, 12.61 1.96, 14.86 0.82 C17.12 -0.31, 16.47 -0.9, 16.91 -0.83"
      stroke="#000000" stroke-width="1" fill="none"></path>
  </g>
  <g stroke-linecap="round">
    <g stroke-opacity="0.8" fill-opacity="0.8"
      transform="translate(43.85630356660266 373.0403856861469) rotate(0 10.847909420725415 14.265242185230022)"
      fill-rule="evenodd">
      <path
        d="M0 0 C0 0, 0 0, 0 0 M0 0 C0 0, 0 0, 0 0 M-1.76 4.62 C0.04 4.29, 2.01 3.26, 6.87 -2.08 M-1.08 5.54 C1.7 4.01, 4 1.15, 5.01 -0.1 M-0.19 11.77 C0.8 9.13, 6.56 3.91, 7.94 -3.62 M0.8 13.27 C4 9.41, 4.91 4.13, 10.36 -0.65 M0.59 18.86 C5.6 9.54, 10.51 4.26, 17.85 -1.97 M1.84 19.94 C5.86 12.82, 9.78 8.21, 16.9 -1.12 M0.46 22.32 C7.09 14.85, 13.94 9.43, 15.55 0.87 M-1.49 25.41 C6.9 17.96, 13.26 8.91, 20.12 2.72 M2.85 30.24 C5.25 21.69, 14.3 12.01, 22.39 6.57 M-0.25 29.26 C6.73 23.45, 13.61 15.22, 22.2 7.32 M3.54 28.65 C13.5 24.48, 19.02 14.95, 18.62 14.72 M4.88 31.59 C12.46 25.52, 17.8 16.06, 21.25 10.19 M8.16 30.87 C13.04 29.98, 17.52 25.99, 21.26 15.72 M10.49 33.31 C11.98 27.63, 20.3 21.64, 22.87 17.84 M16.6 30.82 C16.59 28.05, 17.64 28.88, 19.3 25.36 M16.62 30.21 C17.2 28.72, 18.7 26.99, 19.79 26.09"
        stroke="#ffffff" stroke-width="0.5" fill="none"></path>
      <path
        d="M-2.69 0.41 C-2.81 2.96, 0.07 10.91, 0.69 15.72 C1.32 20.52, -2.39 26.45, 1.04 29.24 C4.47 32.02, 18.12 35.68, 21.28 32.4 C24.45 29.12, 20.55 15.24, 20.03 9.56 C19.51 3.87, 19.72 0.07, 18.15 -1.71 C16.58 -3.48, 13.65 -1.17, 10.61 -1.11 C7.57 -1.04, 1.4 -1.07, -0.08 -1.31 M1.05 -1.84 C0.49 1.02, -0.98 12.9, -1.19 18.5 C-1.4 24.1, -4.26 30.2, -0.21 31.76 C3.84 33.32, 19.03 31.6, 23.11 27.86 C27.19 24.12, 24.62 14.65, 24.29 9.32 C23.97 3.99, 24.42 -3.19, 21.16 -4.12 C17.9 -5.04, 8.69 3.58, 4.74 3.79 C0.79 4.01, -1.55 -2.44, -2.54 -2.83"
        stroke="#000000" stroke-width="1" fill="none"></path>
    </g>
  </g>
  <mask></mask>
  <g stroke-linecap="round">
    <g stroke-opacity="0.8" fill-opacity="0.8"
      transform="translate(42.253168911214686 373.43391445078373) rotate(0 -2.712492783735456 9.343030699533358)">
      <path
        d="M-1.12 0.74 C-5.17 5.5, -6.86 6.49, -23.23 18.26 M-0.03 -0.47 C-5.79 4.67, -13.46 11.38, -21.58 18.3 M-19.96 18.55 C-14.59 16.71, -5.74 14.11, 5.52 11.06 M-22.62 17.83 C-12.74 16.77, -1.33 13.7, 4.37 11.79 M4.75 11.63 C6.36 13.07, 6.8 13.76, 10.53 14.44 M4.92 11.89 C6.09 12.36, 7.43 12.92, 10.8 14.27 M10.87 14.62 C12.1 13.41, 13.53 13.4, 16.43 12.92 M11.06 14.19 C12.63 13.68, 14.54 13.23, 16.18 12.88"
        stroke="#000000" stroke-width="1" fill="none"></path>
    </g>
  </g>
  <mask></mask>
  <g stroke-linecap="round">
    <g stroke-opacity="0.8" fill-opacity="0.8"
      transform="translate(65.76143970358834 375.84501914743737) rotate(0 17.781897137821375 11.452747309105405)">
      <path
        d="M-0.77 1.64 C5.35 6.18, 5.36 14.35, 10.91 24.56 M0.63 -0.91 C2.38 6.21, 5.82 11.7, 10.78 23.09 M10.21 22.85 C14.47 15.85, 18.06 9.23, 23.78 2.11 M9.93 23.35 C14.57 17.28, 16.49 11.56, 21.47 0.22 M22.63 1.75 C23.13 2.8, 25.08 2.81, 28.8 4.05 M22.34 0.92 C24.27 1.94, 25.91 2.82, 29.5 4.79 M29.15 4.16 C30.4 4.04, 32.58 3.69, 35.83 2.29 M29.47 4.64 C31.59 3.87, 33.5 3.1, 35.62 1.84"
        stroke="#000000" stroke-width="1" fill="none"></path>
    </g>
  </g>
  <mask></mask>
  <g stroke-linecap="round">
    <g stroke-opacity="0.8" fill-opacity="0.8"
      transform="translate(44.443657094929165 404.866417961505) rotate(0 -6.576819552445187 16.01312586682286)">
      <path
        d="M1.97 -1.19 C-1.44 8.72, 0.34 19.96, -0.17 27.11 M-0.47 0.14 C0.44 6.49, 0.39 13.94, 0.5 28.03 M0.92 26.62 C-3.11 27.84, -6.71 30.69, -14.37 30.64 M1.01 27.06 C-2.88 28.07, -6.22 28.56, -14.33 31.94"
        stroke="#000000" stroke-width="1" fill="none"></path>
    </g>
  </g>
  <mask></mask>
  <g stroke-linecap="round">
    <g stroke-opacity="0.8" fill-opacity="0.8"
      transform="translate(62.744372371298084 403.4366745805387) rotate(0 7.2916912429282945 18.300715276369147)">
      <path
        d="M-1.53 -0.43 C0.14 13.22, -0.88 23.09, -1.51 31.57 M0.12 -0.39 C-0.34 6.52, -0.46 13.54, -0.64 29.99 M0.02 29.47 C5.36 33, 8.06 32.55, 13.7 35.04 M-0.96 30.08 C4.18 31.66, 9.62 34.57, 14.61 36.94"
        stroke="#000000" stroke-width="1" fill="none"></path>
    </g>
  </g>
  <mask></mask>
  <g stroke-opacity="0.8" fill-opacity="0.8"
    transform="translate(50.64426195340246 352.5555904060245) rotate(0 0.00002509012361429086 0.00002509012364271257)"
    stroke="none">
    <path fill="#000000"
      d="M 1.57,-1.57 Q 1.57,-1.57 1.77,-1.27 1.98,-0.98 2.09,-0.64 2.20,-0.29 2.19,0.05 2.18,0.41 2.05,0.75 1.93,1.09 1.70,1.37 1.48,1.65 1.18,1.84 0.87,2.03 0.52,2.12 0.18,2.21 -0.17,2.18 -0.53,2.15 -0.86,2.01 -1.19,1.87 -1.46,1.63 -1.73,1.39 -1.90,1.07 -2.08,0.76 -2.15,0.41 -2.21,0.05 -2.17,-0.29 -2.12,-0.65 -1.96,-0.97 -1.80,-1.29 -1.54,-1.54 -1.29,-1.80 -0.97,-1.96 -0.65,-2.12 -0.29,-2.17 0.06,-2.21 0.41,-2.15 0.76,-2.08 1.07,-1.90 1.39,-1.73 1.63,-1.46 1.87,-1.19 2.01,-0.86 2.15,-0.53 2.18,-0.17 2.21,0.18 2.12,0.52 2.03,0.87 1.84,1.18 1.65,1.48 1.37,1.70 1.09,1.93 0.75,2.05 0.41,2.18 0.05,2.19 -0.30,2.20 -0.64,2.09 -0.98,1.98 -1.27,1.77 -1.57,1.56 -1.57,1.57 -1.57,1.57 -1.73,1.35 -1.90,1.14 -2.01,0.90 -2.12,0.66 -2.16,0.39 -2.21,0.13 -2.20,-0.13 -2.18,-0.40 -2.10,-0.65 -2.02,-0.91 -1.88,-1.14 -1.74,-1.36 -1.55,-1.55 -1.36,-1.74 -1.14,-1.88 -0.91,-2.02 -0.65,-2.10 -0.40,-2.18 -0.13,-2.20 0.13,-2.21 0.39,-2.16 0.66,-2.12 0.90,-2.01 1.14,-1.90 1.35,-1.73 1.57,-1.57 1.57,-1.57 L 1.57,-1.57 Z">
    </path>
  </g>
  <g stroke-opacity="0.8" fill-opacity="0.8"
    transform="translate(61.50226247535801 350.38399030163305) rotate(0 0 -0.3619333507319311)" stroke="none">
    <path fill="#000000"
      d="M 2.12,-0.66 Q 2.12,-0.66 2.15,-0.13 2.18,0.40 1.96,0.88 1.74,1.36 1.32,1.69 0.91,2.02 0.38,2.12 -0.13,2.21 -0.64,2.05 -1.14,1.90 -1.52,1.52 -1.90,1.14 -2.05,0.64 -2.21,0.13 -2.12,-0.38 -2.02,-0.91 -1.69,-1.32 -1.36,-1.74 -0.88,-1.96 -0.39,-2.18 0.13,-2.15 0.66,-2.11 1.11,-1.84 1.57,-1.56 1.84,-1.11 L 2.12,-0.66 Z">
    </path>
  </g>
  <g stroke-linecap="round">
    <g stroke-opacity="0.8" fill-opacity="0.8"
      transform="translate(55.075556491328086 359.14726227209553) rotate(180.707313349537 3.3203860146733746 -1.2451447555025084)"
      fill-rule="evenodd">
      <path
        d="M0 0 C0 0, 0 0, 0 0 M0 0 C0 0, 0 0, 0 0 M5.64 -0.39 C5.64 -0.39, 5.64 -0.39, 5.64 -0.39 M5.64 -0.39 C5.64 -0.39, 5.64 -0.39, 5.64 -0.39 M0 0 C0 0, 0 0, 0 0 M0 0 C0 0, 0 0, 0 0 M5.64 -0.39 C5.21 -0.81, 4.78 -1.13, 4.13 -1.71 M5.64 -0.39 C5.28 -0.71, 4.93 -1.02, 4.13 -1.71"
        stroke="#ffffff" stroke-width="0.5" fill="none"></path>
      <path
        d="M-0.01 -0.17 C0.39 -0.61, 1.63 -2.76, 2.71 -2.81 C3.79 -2.87, 5.81 -0.86, 6.47 -0.5 M-0.44 0.52 C-0.09 0.11, 1.45 -2.43, 2.55 -2.53 C3.65 -2.63, 5.46 -0.44, 6.16 -0.09"
        stroke="#000000" stroke-width="1" fill="none"></path>
    </g>
  </g>
  <mask></mask>
  <g transform="translate(92.67578125 61.3890380859375) rotate(0 45.619964599609375 12.5)">
    __STRIP_1__
    <!-- <text x="0"
      y="17.619999999999997" font-family="Excalifont, Segoe UI Emoji" font-size="20px" fill="#1e1e1e"
      text-anchor="start" style="white-space: pre;" direction="ltr" dominant-baseline="alphabetic">ConceptA</text> -->
  </g>
  <g transform="translate(338.56581115722656 51.4671630859375) rotate(0 111.62992095947266 25)">
    __STRIP_2__
    <!-- <text x="0"
      y="17.619999999999997" font-family="Excalifont, Segoe UI Emoji" font-size="20px" fill="#1e1e1e"
      text-anchor="start" style="white-space: pre;" direction="ltr" dominant-baseline="alphabetic">ConceptA rel
      ConceptB</text><text x="0" y="42.62" font-family="Excalifont, Segoe UI Emoji" font-size="20px" fill="#1e1e1e"
      text-anchor="start" style="white-space: pre;" direction="ltr" dominant-baseline="alphabetic">Then...</text> -->
  </g>
  <g transform="translate(106.28414154052734 285.2171630859375) rotate(0 121.919921875 25)">
    __STRIP_3__
    <!-- <text x="0"
      y="17.619999999999997" font-family="Excalifont, Segoe UI Emoji" font-size="20px" fill="#1e1e1e"
      text-anchor="start" style="white-space: pre;" direction="ltr" dominant-baseline="alphabetic">Concept C rel Concept
      D,</text><text x="0" y="42.62" font-family="Excalifont, Segoe UI Emoji" font-size="20px" fill="#1e1e1e"
      text-anchor="start" style="white-space: pre;" direction="ltr" dominant-baseline="alphabetic">and Concept D
      rel...</text> -->
      
  </g>
  <g transform="translate(525.2550354003906 271.0296630859375) rotate(0 49.10996674001217 12.5)">
    __STRIP_4__
    <!-- <text x="0"
      y="17.619999999999997" font-family="Excalifont, Segoe UI Emoji" font-size="20px" fill="#1e1e1e"
      text-anchor="start" style="white-space: pre;" direction="ltr" dominant-baseline="alphabetic">ConceptE!</text> -->
      </g>
</svg>