<svg version="1.1" xmlns="http://www.w3.org/2000/svg" viewBox="0 0 1447.26866562804935 351.6625662009476"
  width="1447.26866562804935" height="351.6625662009476">
  <!-- svg-source:excalidraw -->

  <defs>
    <style>
      @font-face {
        font-family: "Virgil";
        src: url("https://excalidraw.com/Virgil.woff2");
      }

      @font-face {
        font-family: "Cascadia";
        src: url("https://excalidraw.com/Cascadia.woff2");
      }
    </style>
  </defs>
   <rect x="0" y="0" width="1447.26866562804935" height="351.6625662009476" fill="#ffffff"></rect>
  <g transform="translate(10 10) rotate(0 173.63433281402467 165.8312831004738) ">
    <path
      d="M0.7287867263637406 0.8439694301330793 C128.3837848249948 -2.0564972263105066, 256.0919535943291 -0.2270788569587332, 346.08084017716436 -0.12719302006704883 M0.2564499310556776 -0.24298592428908808 C91.49608894417189 2.0497735570123847, 183.45856544867843 1.8093152159110146, 346.75931970617 0.5574947031297602 M348.12300641613547 0.442801540470446 C348.23153460419445 106.28626931693121, 348.2325483317829 212.50841691611907, 348.526118241931 330.59971488739177 M346.83005510400324 0.13337760147438504 C347.23827305229025 118.45273085037138, 347.2260427729027 237.28685522825472, 347.8586686525144 331.9853297923123 M348.42209616088104 331.3413773822184 C226.44594234043205 332.86344016412596, 105.7476023770724 332.398170579655, 0.8375311843439306 332.56742998087026 M346.63234089897804 331.6257502014641 C256.10839989322585 333.02580492159757, 163.9973483227057 333.64442642533027, 0.30880853561291205 331.11733749635624 M0.9299329357087299 330.71089653148846 C-1.5132949102215472 218.6063963629884, -0.4196463886592964 104.28875623678636, -0.7481366794922281 0.4678617690866044 M0.5924906159160388 332.29254182005735 C0.7837386364161826 254.52317536691064, 0.9608690361788776 177.2672509044013, 0.10509727074314061 0.5629625143751621"
      stroke="#000000" stroke-width="1" fill="none"></path>
  </g>
  <g transform="translate(281.53271792657006 189.98405152904172) rotate(0 23.87460623071297 21.97429578066101)">
    <path
      d="M22.724391339852918 -0.748675981340412 C27.386134560620135 -1.187538361738821, 34.00530796586819 1.8551274787379648, 38.05975010421975 4.747575055954101 C42.11419224257131 7.640022633170238, 45.720544677520756 12.0184929403243, 47.05104416996228 16.606009481956406 C48.38154366240381 21.19352602358851, 48.53853477135283 28.030572999470664, 46.04274705886889 32.27267430574674 C43.54695934638495 36.51477561202282, 36.846200137137856 40.203614202145914, 32.07631789505864 42.05861731961287 C27.306435652979413 43.91362043707983, 22.111193763287083 44.72998299640959, 17.423453606393558 43.40269301054846 C12.735713449500032 42.07540302468733, 6.763257010239354 38.09202988653835, 3.9498769536974905 34.094877404446095 C1.1364968971556273 30.097724922353837, -0.011202370744625156 24.24339274039204, 0.5431732671423788 19.41977811799492 C1.0975489050293827 14.5961634955978, 3.034208525262354 8.496173828228303, 7.276130781019514 5.15318967006338 C11.518053036776674 1.8102055118984572, 22.50372323936365 0.12489931792978715, 25.99470680168534 -0.6381268309946186 C29.485690364007027 -1.4011529799190243, 28.279536903970495 0.15365469553395172, 28.222032154949634 0.5750327765169452 M13.426614542403403 1.1434100356749717 C17.68398670096893 -1.0892783703273894, 23.819979933234567 -1.2346826025603523, 28.634230773412494 -0.010150110447806782 C33.44848161359042 1.2143823816647388, 39.021496752773615 4.765973375274275, 42.31211958347096 8.490604988350245 C45.602742414168304 12.215236601426216, 48.70536720393193 17.619666164544984, 48.377967757596565 22.33763956800802 C48.0505683112612 27.055612971471053, 44.109071441386966 33.45763887309672, 40.34772290545876 36.798445409128455 C36.58637436953055 40.13925194516019, 30.624422443018407 41.6250193937444, 25.809876542027336 42.38247878419844 C20.995330641036265 43.13993817465248, 15.531399720851176 43.971774997115276, 11.460447499512341 41.343201751852675 C7.389495278173507 38.714628506590074, 3.112911141260409 31.42044696335623, 1.3841632139943307 26.611039312622836 C-0.34458471327174744 21.80163166188944, -0.9994821353849308 16.343149238219855, 1.0879599359158725 12.4867558474523 C3.1754020072166758 8.630362456684745, 11.634219766616841 4.985750306845755, 13.90881564179915 3.4726789680175045 C16.183411516981458 1.9596076291892537, 14.640209419938701 3.474490539906618, 14.735535187009726 3.4083278144827958"
      stroke="#000000" stroke-width="2" fill="none"></path>
  </g>
  <g>
    <g transform="translate(302.67179921449565 233.28767298170897) rotate(0 -1.0314868461337028 26.794901341206412)">
      <path
        d="M-0.10968292951583858 -0.10469065904617314 C-0.3049277760723629 8.903565988223068, -1.071737469305296 44.521843050322495, -1.46577381976807 53.26541463899799 M-1.6264051968511195 -1.2052572003845126 C-1.8771649139916549 8.07468148608599, -1.67296869629157 45.729285195884295, -1.9532907627515632 54.795059882797304"
        stroke="#000000" stroke-width="2" fill="none"></path>
    </g>
  </g>
  <g>
    <g transform="translate(301.0971370687191 287.9891447705189) rotate(0 9.728799645042045 17.06147587448214)">
      <path
        d="M-0.10469065904617314 0.8771971821784972 C3.5387287608015496 6.2891681714630625, 17.697656913214903 27.162635395813236, 21.076391274468875 32.36214300619155 M-1.6187919843848795 0.29212175748310987 C1.9339204376510495 5.9066013736459375, 16.087903401601668 28.35087631335246, 20.1205658034197 33.83082999148123"
        stroke="#000000" stroke-width="2" fill="none"></path>
    </g>
  </g>
  <g>
    <g transform="translate(297.84110538834693 286.0027975598671) rotate(0 -9.158379437580948 14.623382604314145)">
      <path
        d="M0.8771971821784972 -0.014819061756134122 C-2.1340510508657937 4.879692340833492, -14.953460715831042 24.187629537495702, -18.177172327781584 29.262377756491578 M-0.12141302651725705 -1.068203014517203 C-3.29254166969634 3.959030771511963, -15.972415455466855 24.823392577298836, -19.193956057340397 30.314968223145506"
        stroke="#000000" stroke-width="2" fill="none"></path>
    </g>
  </g>
  <g>
    <g transform="translate(273.85906659205966 263.8724001567339) rotate(0 13.85356580197049 -9.20505749768165)">
      <path
        d="M-0.014819061756134122 -0.13093003034591666 C4.496254323193737 -3.323660388211894, 22.270439449296934 -15.297819353245137, 26.961749650653054 -18.279184965017365 M-1.48173779851757 -1.2452722416166218 C3.4096689328587875 -4.3470372465301175, 24.35900683192503 -14.371692512320292, 29.188869402458494 -16.961645564642847"
        stroke="#000000" stroke-width="2" fill="none"></path>
    </g>
  </g>
  <g>
    <g transform="translate(301.14419822179707 244.9897258474034) rotate(0 8.935382301823893 11.546898667254027)">
      <path
        d="M-0.13093003034591666 -0.9234948277473449 C2.9777990441684876 3.0818570429212544, 16.20947780865677 20.02428160018061, 19.529571629264925 24.017292162255462 M-1.6588070256169887 1.2060664423462004 C1.1784983648368426 4.8287650250676215, 14.928408992406581 18.23145238725242, 18.361640314790954 22.024811189166346"
        stroke="#000000" stroke-width="2" fill="none"></path>
    </g>
  </g>
  <g transform="translate(27.23231171365819 51.548108358768786) rotate(0 129.48866889589215 61.97671851632623)">
    <path
      d="M142.8792554593508 0.015187333628247757 C158.95407394965036 0.2959888436295988, 175.87184529271752 5.147107539819837, 190.13649448658586 8.854298628254462 C204.4011436804542 12.561489716689087, 218.27604322130455 16.85477204402533, 228.4671506225609 22.258333864236 C238.65825802381724 27.66189568444667, 246.1212946884561 33.67578408053386, 251.2831388941239 41.27566954951848 C256.4449830997917 48.87555501850311, 260.68840296065457 59.51386678998177, 259.43821585656775 67.85764667814374 C258.18802875248093 76.20142656630571, 251.13999968349123 84.15141841860243, 243.78201626960288 91.33834887849031 C236.42403285571453 98.52527933837818, 227.46200797750743 105.78622010105198, 215.29031537323758 110.97922943747102 C203.11862276896773 116.17223877389006, 186.95707503641563 120.2444350578502, 170.75186064398383 122.49640489700451 C154.54664625155203 124.74837473615882, 134.31611463974198 125.45412621547153, 118.05902901864681 124.49104847239687 C101.80194339755164 123.5279707293222, 87.3577617229754 120.44117343787885, 73.20934691741283 116.7179384385565 C59.06093211185027 112.99470343923416, 44.57565205160165 108.13124094985244, 33.16854018527144 102.15163847646278 C21.761428318941228 96.17203600307312, 9.995771895095526 87.93737854349237, 4.766675719431561 80.84032359821853 C-0.4624204562324037 73.74326865294469, 0.18296628551835892 67.47852060126489, 1.7939631312876543 59.569308804819784 C3.40495997705695 51.66009700837468, 7.546520272550379 40.80469377692244, 14.432656794047332 33.38505281954791 C21.318793315544287 25.965411862173376, 30.716265189480616 19.862214610262665, 43.110782260269374 15.051463060572587 C55.50529933105813 10.240711510882509, 73.36638780668144 7.279576875923134, 88.79975921877988 4.520543521407433 C104.23313063087832 1.761510166891732, 120.19127920065253 -1.9490679162860154, 135.71101073285996 -1.5027370665216182 C151.2307422650674 -1.056406216757221, 168.99329986829363 4.029881852349829, 181.91814841202446 7.198528619993816 C194.8429969557553 10.367175387637802, 214.43816091714805 17.221630838605986, 213.26010199524495 17.509143539342297 M163.85081972899718 -0.06827825470227111 C179.26285373689703 1.530749484925946, 197.24399071210217 9.77844432792537, 210.37325662473546 14.97160309894798 C223.50252253736875 20.16476186997059, 234.72829701552422 24.133135443576283, 242.62641520479693 31.09067437143339 C250.52453339406964 38.0482132992905, 255.6623699023811 49.003498203614264, 257.76196576037165 56.716836666090636 C259.8615616183622 64.43017512856702, 259.16715473294664 69.95901926036562, 255.22399035274015 77.37070514629164 C251.28082597253365 84.78239103221766, 243.96563530945502 95.00525648447658, 234.1029794791327 101.18695198164676 C224.24032364881037 107.36864747881694, 210.440107430805 111.1357470946356, 196.04805537080625 114.46087812931269 C181.6560033108075 117.78600916398977, 164.24573197752417 119.85272105529343, 147.75066711914025 121.13773818970925 C131.25560226075632 122.42275532412508, 113.53868100817948 123.57804592088034, 97.07766622050272 122.17098093580765 C80.61665143282596 120.76391595073495, 61.935346908355015 117.89239299392716, 48.984578393079644 112.6953482792731 C36.03380987780427 107.49830356461905, 27.359666273420366 98.56653546445632, 19.37305512885051 90.98871264788332 C11.386443984280653 83.41088983131031, 3.9524932997266427 74.38005575141612, 1.0649115256605057 67.22841137983505 C-1.8226702484056312 60.076767008253974, -1.7924055938617656 54.754818471124345, 2.0475644844536873 48.07884641839686 C5.88753456276914 41.40287436566937, 13.464639460685213 34.25851667350498, 24.104731995553223 27.17257906347011 C34.74482453042123 20.08664145343524, 50.83569545418757 10.053204474122694, 65.88811969366175 5.563220758187647 C80.94054393313593 1.0732370422526012, 98.57631446714005 0.3720305695305287, 114.4192774323983 0.23267676785983582 C130.26224039765657 0.0933229661891429, 152.82004523492162 4.759649906523857, 160.94589748521128 4.72709794816349 C169.07174973550093 4.694545989803122, 162.59419194559763 0.04339739414397551, 163.1743909341363 0.03736501769763123 C163.754589922675 0.03133264125128695, 164.22827141282607 3.493378056064035, 164.42709141644332 4.690903689485424"
      stroke="#000000" stroke-width="1" fill="none"></path>
  </g>
  <g>
    <g transform="translate(268.23465806295576 142.61810575264917) rotate(287.02878852237137 -2.7284019389129526 19.98135846419308)"
      fill-rule="evenodd">
      <path
        d="M-4.343226283882794 1.781145453453064 L-17.236159001078022 36.69996035590231 L0.46501941791971824 32.264843333380256 L19.256544481634087 14.695852055965524 L17.83887737165296 4.75610261441806 L0.7293407022011898 3.6621307134628296"
        stroke="none" stroke-width="0" fill="#fff" fill-rule="evenodd"></path>
      <path
        d="M-0.44134133467548853 -1.530471360683441 C-3.631880220565448 5.179302283946773, -23.688600241265128 38.84550789443137, -21.091394184317004 41.44243022694647 C-18.49418812736888 44.03935255946157, 11.30618069591172 20.964552557113528, 15.141895007013268 14.051062634407144 C18.977609318114816 7.137572711700758, 4.5085567541329885 2.6635209028619298, 1.9228916822922844 -0.0385093092918396 M-3.751299262587963 3.8103903762996207 C-5.95848262155379 9.701470842435063, -18.693275210829015 37.00671874297144, -15.874488274987353 37.907579478616114 C-13.055701339145692 38.80844021426079, 11.301717240185017 15.109081173432628, 13.161422352462 9.21555479016767 C15.021127464738985 3.322028406902713, -1.9106049065879156 4.484329577406027, -4.7162576013254505 2.5464211790263658"
        stroke="#fff" stroke-width="1" fill="none"></path>
    </g>
  </g>
  <g>
    <g
      transform="translate(267.5144585006344 143.3375806161829) rotate(287.02878852237137 -1.0725270887371607 20.70320141886043)">
      <path
        d="M-2.8248256909862213 2.7186112046241755 C-5.746688647762103 9.587070610562508, -21.455605875426883 37.599716206884786, -17.92506661828702 39.68028507494655 C-14.394527361147155 41.76085394300832, 12.693661624550177 19.63550274485736, 18.35840985185297 15.202024412994794 M1.185564968137438 1.726117762774229 C-2.1605799942663935 7.891216835269873, -23.1332151355588 32.60312037919601, -20.335998157077483 35.36397612043944 C-17.538781178596167 38.12483186168287, 11.776463259765858 21.766569574270534, 17.968866839025335 18.291252210234813"
        stroke="#000000" stroke-width="1" fill="none"></path>
    </g>
  </g>
  <g transform="translate(57.85706029685207 102.77068250768048) rotate(0 107.5 12.5)">
    __STRIP_1__
  </g>




  <g transform="translate(360.915589043148 0)">
<g transform="translate(602.915589043148 180.46066394630498) rotate(0 25.579106812955047 23.543125841795472)">
    <path
      d="M37.075229828909706 1.6300489148060393 C41.674173678666996 3.4279605556890367, 45.363986870394434 9.64379235588817, 47.71001494498891 14.374314777997975 C50.05604301958339 19.10483720010778, 52.21868342281381 25.366978011733202, 51.15139827647657 30.01318344746488 C50.08411313013933 34.659388883196556, 45.945072072359594 39.37632077932462, 41.306304066965474 42.25154739238803 C36.667536061571354 45.12677400545143, 29.007798943952583 47.75376038630502, 23.31879024411184 47.26454312584531 C17.6297815442711 46.7753258653856, 10.929354091897466 42.95854823741895, 7.172251867921034 39.316243829629784 C3.4151496439446025 35.673939421840615, 1.2605273439522182 30.206889332483577, 0.7761769002532546 25.41071667911031 C0.291826456554291 20.61454402573704, 1.2045098649944648 14.738991154253451, 4.2661492057272525 10.539207909390182 C7.32778854646004 6.339424664526913, 13.02555678327369 1.3275917112723992, 19.146012944649982 0.21201720993069273 C25.266469106026275 -0.9035572914110137, 36.80897330425678 2.5766265964614226, 40.988886173985016 3.8457609013399434 C45.16879904371325 5.114895206218464, 44.63937807827599 7.291098702917937, 44.2254901630194 7.826823039201816 M31.900048809670206 1.7936831229386527 C36.869640532262 2.6343845593103157, 43.26611983317368 5.541419140621842, 46.217071037277 9.676891614557073 C49.16802224138032 13.812364088492306, 50.02736713041119 21.61528956448433, 49.60575603429013 26.606517966550044 C49.18414493816907 31.59774636861576, 47.38541236940431 36.07003439230432, 43.68740446055061 39.62426202695136 C39.98939655169691 43.17848966159839, 33.033117559115894 47.57986730225242, 27.417708581167965 47.93188377443225 C21.802299603220032 48.283900246612085, 14.657444013988854 44.91422993651338, 9.994950592863011 41.736360860030366 C5.332457171737169 38.55849178354735, 0.8580942584550793 33.74189015696269, -0.5572519455870903 28.86466931553418 C-1.97259814962926 23.98744847410567, -1.1837590765269232 17.066966806720075, 1.5028733686099933 12.47303581145931 C4.18950581374691 7.879104816198544, 10.542592520002085 3.4072379253325082, 15.56254272523441 1.3010833439695872 C20.582492930466735 -0.8050712373933337, 28.916206335248688 -0.1222678948392204, 31.622574600003947 -0.16389167671821525 C34.328942864759206 -0.2055154585972101, 31.87360800288569 0.7026340481175677, 31.80075231376597 1.0513406526956182"
      stroke="#000000" stroke-width="1" fill="none"></path>
  </g>
  <g>
    <g transform="translate(625.6827498364596 227.22410450071038) rotate(0 -1.1276772731092706 29.094173077618052)">
      <path
        d="M0.060281189158558846 1.033281872794032 C-0.07336764331960932 10.522088410774687, -1.4966468049240238 48.42007497062196, -1.760963133129731 57.65819524456453 M-1.3672099158726634 0.5301509106718005 C-1.5093992565018859 9.600088489106367, -2.2477731579010314 46.349890417486776, -2.3156357353771777 55.837012158061235"
        stroke="#000000" stroke-width="1" fill="none"></path>
    </g>
  </g>
  <g>
    <g transform="translate(623.1550267202206 285.65584559173794) rotate(0 11.643844495762892 17.947278942818457)">
      <path
        d="M1.033281872794032 0.7492816407233476 C4.7742346808229685 6.705485997342455, 19.68080632086337 30.31795435470039, 23.17107286485422 35.79750732887321 M0.1166161266714334 0.09705055676400653 C3.6863109381412276 5.728503006988157, 19.06342611055315 28.487822470036093, 22.524419063502435 34.19186227682763"
        stroke="#000000" stroke-width="1" fill="none"></path>
    </g>
  </g>
  <g>
    <g transform="translate(619.7819572840358 283.21672427211934) rotate(0 -9.015919771607855 16.379764933711385)">
      <path
        d="M0.7492816407233476 0.574079356715083 C-2.319099460310586 5.688340134171934, -14.804972933564821 26.243467824897625, -18.350005417045043 31.718846537535143 M-0.3164842272363604 -0.1701329263485969 C-3.4620062716783067 5.61364860294217, -15.792300475404152 27.625695698532173, -18.781121183939117 32.92966279377143"
        stroke="#000000" stroke-width="1" fill="none"></path>
    </g>
  </g>
  <g>
    <g transform="translate(593.6912712097333 259.3064595293522) rotate(0 15.527822757067725 -9.668563255867411)">
      <path
        d="M0.574079356715083 0.9846279937773941 C5.277526991765518 -2.527211363928515, 24.189402112865544 -17.13376425364116, 29.253967683096644 -20.321754505512107 M-0.5836677103489638 0.4559537451714277 C4.426911639522333 -3.0208794947137414, 26.414434329325058 -16.003643536503105, 31.63931322448444 -19.407126175191987"
        stroke="#000000" stroke-width="1" fill="none"></path>
    </g>
  </g>
  <g>
    <g transform="translate(623.1006374910871 239.1795558823128) rotate(0 11.158946097849139 12.96488554743064)">
      <path
        d="M0.9846279937773941 -0.6221123713999986 C4.224133656832769 3.707521646857676, 16.62296085016526 22.102061688604042, 20.186315619055595 26.55188346626113 M0.04241896117106081 1.6656746882759035 C3.564541705034121 5.634416374337342, 18.595885910128278 21.26763116343154, 22.275473234527226 24.99913989737506"
        stroke="#000000" stroke-width="1" fill="none"></path>
    </g>
  </g>
  <g transform="translate(55.61909346109019 180.4398283656169) rotate(0 21.517207337788022 23.610752476823336)">
    <path
      d="M32.3965501676168 3.3953811363587896 C36.469015719658195 5.3027443394803955, 39.74751752145027 10.461433726142634, 41.33288557359478 15.090183553608925 C42.91825362573929 19.718933381075217, 43.262288124298784 26.408817992642604, 41.908758480483854 31.16788010115654 C40.555228836668924 35.92694220967048, 37.097064747441095 40.98590429150066, 33.21170771070521 43.64455620469255 C29.326350673969333 46.30320811788444, 23.062722421742905 47.67060062289542, 18.59661626006858 47.1197915803079 C14.130510098394254 46.56898253772037, 9.417740458350135 44.07533532847144, 6.41507074065926 40.339701949167406 C3.412401022968386 36.60406856986337, 0.9088859817328618 29.864196969102743, 0.5805979539233341 24.70599130448368 C0.2523099261138064 19.547785639864614, 1.655771705607194 13.535648557354858, 4.445342573802094 9.390467961453012 C7.234913441996994 5.245287365551168, 12.352317020183456 0.6426858900449682, 17.318023163092732 -0.16509227092738854 C22.28372930600201 -0.9728704318997453, 31.12340582041406 3.6069222374479613, 34.23957943125775 4.543798995618872 C37.35575304210144 5.4806757537897814, 36.23027378227445 5.296087961310616, 36.015064828154884 5.4561682780980725 M13.866927786241645 1.3499127326248974 C18.21381326508193 -0.7743427629148547, 24.42954463514269 0.9135102235260335, 28.73903965208859 2.1895098915672726 C33.04853466903449 3.4655095596085115, 37.34774983232161 5.023378625707801, 39.72389788791703 9.005910740872332 C42.100045943512455 12.988442856036864, 43.398574106570514 20.742430171116094, 42.99592798566114 26.084702582554456 C42.593281864751766 31.42697499399282, 40.39529289841325 37.50480656135241, 37.308021162460804 41.059545209502495 C34.220749426508355 44.61428385765258, 29.165875508488064 46.88174106814184, 24.47229756994646 47.41313447145495 C19.778719631404854 47.94452787476806, 12.962828150684656 47.17798910717409, 9.146553531211183 44.247905629381165 C5.330278911737709 41.31782215158824, 2.990322705827781 35.16764883727339, 1.5746498531056226 29.832633604697374 C0.15897700038346407 24.497618372121355, -1.2138826623609689 16.959762033930208, 0.6525164148782316 12.237814233925047 C2.518915492117432 7.515866433919887, 10.913306996759095 3.3085963613650335, 12.773044316540826 1.5009468046664125 C14.632781636322557 -0.30670275203220854, 11.474219985507746 0.7203855302155393, 11.810940333568613 1.3919168937333204"
      stroke="#000000" stroke-width="1" fill="none"></path>
  </g>
  <g>
    <g transform="translate(75.21081470842523 227.6521868124987) rotate(0 -1.6837931081569195 28.445659270846136)">
      <path
        d="M-0.1827437181025744 1.1779834706336259 C-0.6984267440907065 10.58809080542402, -2.958561098809989 47.02447338259601, -3.184842498211207 56.140497694315115 M-1.7378228994458915 0.7508208473771809 C-1.860077375667483 9.870453962845373, -0.8545074085254986 45.68015710524106, -0.871829710064473 54.5407943253235"
        stroke="#000000" stroke-width="1" fill="none"></path>
    </g>
  </g>
  <g>
    <g transform="translate(72.57591056923661 284.2417510338814) rotate(0 11.581220204096098 16.877332130442483)">
      <path
        d="M1.1779834706336259 -0.759889044240117 C5.0355335805074315 5.022993792964475, 19.261687258013062 28.81327714211472, 22.825154344815576 34.51455330512498 M0.3372860633768142 1.4555652621947228 C4.151972916915361 6.926201540137039, 18.76017532348307 27.320685444969467, 22.399980260975475 32.856352259563394"
        stroke="#000000" stroke-width="1" fill="none"></path>
    </g>
  </g>
  <g>
    <g transform="translate(69.34510161861431 281.8264168578439) rotate(0 -8.617407433426138 16.2224453767642)">
      <path
        d="M-0.759889044240117 0.9959454853087661 C-3.6949606886624533 6.128227879165089, -14.77649526601992 26.875165474705277, -17.79317358463659 31.97167783377156 M1.0420304781943561 0.47321291975677005 C-1.9576767625033096 5.77062750717846, -14.816282620340209 24.799785080097493, -18.276845345046663 30.23213107926235"
        stroke="#000000" stroke-width="1" fill="none"></path>
    </g>
  </g>
  <g>
    <g transform="translate(53.84757603581306 238.04551163786664) rotate(0 10.99685733432193 10.957856363898145)">
      <path
        d="M0.9959454853087661 0.8845213394612073 C4.455287662351073 4.3729503461600725, 18.5104643906352 16.93760533922979, 21.93403653288747 20.17068499595307 M0.05967813575640313 0.30329109733924264 C3.3217634693510245 4.046630040823805, 17.88788833885238 18.069009730887352, 21.369019063529766 21.61242163045712"
        stroke="#000000" stroke-width="1" fill="none"></path>
    </g>
  </g>
  <g>
    <g transform="translate(76.49151761233384 258.215515097992) rotate(0 15.132341232896238 -9.059562872665538)">
      <path
        d="M0.8845213394612073 0.7295771319419144 C6.07365720557681 -2.253232210756119, 25.44113963631348 -13.949628556672613, 30.374926152453497 -16.900910570879436 M-0.11024368666112427 0.06700118087232121 C4.971413079227123 -2.769455236525115, 24.365348370796006 -16.249806350622457, 29.331192072109058 -18.84870287727282"
        stroke="#000000" stroke-width="1" fill="none"></path>
    </g>
  </g>
  <g>
    <g transform="translate(106.89666602355805 192.63283404820822) rotate(0 -29.806186601232753 8.800864369716919)">
      <path
        d="M-11.401877714492406 -0.18226403184235096 C-13.36453332704036 1.0454602450815722, -17.9054125170845 7.581673699298342, -22.91144303641328 8.250867001004746 C-27.917473555742063 8.92006030271115, -37.22155208853846 2.250349828791654, -41.43806083046509 3.8328957783960718 C-45.65456957239172 5.41544172800049, -47.11196416137221 15.267375801885487, -48.21049548797309 17.746142698631253 M-12.477988449562366 -1.323556593898684 C-14.656680173822776 0.025019211073754377, -18.752785968209377 9.247814450373342, -23.684706057655152 9.751568634528896 C-28.616626147100927 10.25532281868445, -38.02135694723417 0.17001572790074904, -42.069508986237025 1.6989685110346393 C-46.11766102523988 3.22792129416853, -46.74934826623129 16.53925014904699, -47.97361829167232 18.925285333332237"
        stroke="#000000" stroke-width="1" fill="none"></path>
    </g>
  </g>
  <g>
    <g transform="translate(72.7234526621412 197.10221313495504) rotate(0 -21.27966444162655 8.777058238544896)">
      <path
        d="M-14.456713738462392 -4.08687598915224 C-14.854187223436963 -5.24079441113171, -14.64228395643654 -9.242864660493824, -15.77476927700626 -10.613728326963967 C-16.90725459757598 -11.98459199343411, -19.104522633178455 -13.925555813771311, -21.251625661880716 -12.312057987973095 C-23.398728690582978 -10.698560162174878, -28.241035154591387 -8.036952082968638, -28.657387449219822 -0.9327413721746658 C-29.073739743848257 6.171469338619305, -25.321901180748036 27.71490065934872, -23.749739429651317 30.31320627679073 C-22.1775776785546 32.91151189423274, -20.774754747142016 20.374801466435148, -19.22441694263951 14.65709233247738 C-17.674079138137007 8.93938319851961, -15.31862013064303 -0.6794434148290462, -14.447712602636281 -3.9930485269558895 M-16.01154108451909 -4.957697492106007 C-16.6505520784582 -6.558711141326993, -15.793338862536572 -11.594237015269494, -16.759538358330598 -12.602052934127636 C-17.725737854124624 -13.609868852985779, -19.879460009409414 -13.147643858206097, -21.808738059283243 -11.004593005254865 C-23.738016109157073 -8.861542152303633, -27.86302806613881 -6.186785388595744, -28.33520665757358 0.2562521835797573 C-28.807385249008348 6.699289755755259, -25.845397106859973 25.39305131005859, -24.641809607891854 27.653632427798144 C-23.438222108923735 29.9142135455377, -22.90469433112901 19.281142830073787, -21.113681663764872 13.81973889001708 C-19.322668996400733 8.358334949960373, -14.934655929878135 -1.813508292607338, -13.895733603707018 -5.114791212542103"
        stroke="#000000" stroke-width="1" fill="none"></path>
    </g>
  </g>
  <g
    transform="translate(45.01070320947224 226.39065792511383) rotate(18.529685470617636 6.049512639137902 12.578976034201787)">
    <path
      d="M-0.07052698076624875 0.25782473920834414 C4.765890355158595 -0.05281338643986032, 8.875187628967272 0.1299289785208506, 13.210873535413322 1.1708909111615304 M0.21513397841243653 0.1388756026303949 C3.912503203478953 0.3354209579250103, 8.868850053802607 0.4293755811386573, 11.69052500386509 0.2746524559337563 M12.712348268290919 1.7140510212630033 C10.840390608727034 8.017147588707807, 13.663424358784255 12.716253601343041, 10.47386895205633 25.236929129839048 M12.934271639136535 0.17708510998636484 C12.291637418540944 8.864486651774712, 12.80679681685828 16.050737108663157, 11.14066902354167 24.34317979871492 M11.15535792618038 26.221371780155838 C9.322988999104332 25.279397719570493, 4.2241373253169705 24.94254855534683, 0.7376731393699958 25.946668631878026 M11.592218948710777 25.338730310252156 C10.074309478099615 24.657232322587404, 7.071939897146319 25.204294620929165, -0.007059719226851446 25.570758116432366 M1.7224325109273195 24.69768704104434 C-1.275108471841203 19.51975624430589, 0.022607132464064428 16.222576103695367, -1.1427824925631285 0.7463014852255583 M-0.4916863674297929 24.96530986487131 C1.1535205035523322 16.364889114925585, -0.6484644920512292 8.29536073711121, 0.06991846021264791 -0.9660070752725005"
      stroke="#000000" stroke-width="1" fill="none"></path>
  </g>
  <g transform="translate(50.52027698662414 46.787764286254514) rotate(0 54 63)">
    __STRIP_2__
  </g>
  <g transform="translate(423.60801066407976 98.31096091536938) rotate(0 58 25)">
    __STRIP_3__
    <!-- </g><g transform="translate(423.60801066407976 98.31096091536938) rotate(0 58 25)"><text x="0" y="48" font-family="Virgil, Segoe UI Emoji" font-size="20px" fill="#000000" text-anchor="start" style="white-space: pre;" direction="ltr">includes...</text> -->
    <text x="0" y="43" font-family="Virgil, Segoe UI Emoji" font-size="20px" fill="#000000" text-anchor="start"
      style="white-space: pre;" direction="ltr"></text>
  </g>
  <g transform="translate(767.0322980059696 68.39417501961816) rotate(0 58.5 37.5)">
    __STRIP_4__
  </g>
  <g
    transform="translate(713.374813339969 9.999999999999545) rotate(89.99999999999994 166.34292339208946 166.34292339208946)">
    <path
      d="M-0.23076863497396513 1.2499614528296425 C75.62271765514652 -1.7912003765793076, 147.73474396619324 -1.782309805865935, 331.83013792936185 1.2205763839043966 M-0.1802744974257827 0.35535079731645525 C103.48651280308836 0.8484498179537292, 208.5653526290009 0.48598126817672094, 332.347013498751 -0.49554329642578315 M332.324211141259 -0.15308179097876246 C332.3564231179847 81.97834751223895, 333.1668159454539 164.46166595629765, 332.5171372337966 331.95065431435387 M332.73191818167595 0.12028519604022338 C334.1468707095514 96.69589510256048, 334.2639370925658 194.03069982611856, 333.32025035838194 333.358319203542 M333.4095844029286 333.78034287076076 C228.60268833085095 333.94782992817966, 126.4158032910359 335.0054831077282, -0.9693292439645351 331.4322687993346 M332.4485540446923 332.6224718299553 C216.1756510694577 332.55168437814797, 100.54769692307667 332.75616020144946, 0.31033884267979306 333.0017493381518 M0.3218233341750626 333.4580421529234 C0.32086841402306193 229.81989715516042, -0.056421091594338946 125.55627288335891, -0.0015928774824330188 -0.8627071295496525 M-0.3252654090709594 332.7493088383107 C0.06511222101450098 229.92081441088698, 0.02575796722992285 128.71606531823275, 0.4553825956354195 0.4432412715544654"
      stroke="#000000" stroke-width="1" fill="none"></path>
  </g>
  <g
    transform="translate(360.8163265306107 10.243902439035992) rotate(89.99999999999994 166.34292339208946 166.34292339208946)">
    <path
      d="M1.2499614528296425 1.2541026553599377 C100.81605779291846 -0.6186187396922063, 201.4156324130251 -0.4718415611294271, 333.9064231680834 0.1694660161237839 M0.35535079731645525 -0.4719994972848649 C80.90823522709765 1.2480757665513336, 161.6544641506349 0.2609144528689065, 332.19030348775317 -0.34984258634223725 M332.5327649932002 -1.2079307017039018 C331.7680201206922 112.35002395045841, 331.59134301434085 225.32641409900384, 331.9506543143538 332.5658305822969 M332.8061319802192 -0.2816763248120106 C332.1467340699855 125.31389429449553, 332.6167772104306 251.59141204678915, 333.35831920354195 332.75331551373273 M333.7803428707607 331.715079657756 C240.79564834082447 333.8444722575624, 150.02812923431875 332.9204038529309, -1.2535779848444275 333.34956719396735 M332.62247182995526 332.24584844575134 C203.54538286660429 331.89865231594507, 75.06083062580817 332.2067462671401, 0.3159025539727847 332.75761785242037 M0.7721953687443623 332.3363738271782 C1.3605018346984816 242.02852630231618, 0.42012618087383863 152.82313786820745, -0.8627071295496525 0.09821913856267699 M0.06346205413165329 333.2573653956672 C-1.2878458086470475 225.95208444557318, -0.2799846196533273 118.60937598719555, 0.4432412715544654 -0.49360868010844516"
      stroke="#000000" stroke-width="1" fill="none"></path>
  </g>
  <g
    transform="translate(10.000000000000455 10.039820806390708) rotate(89.99999999999994 166.34292339208946 166.34292339208946)">
    <path
      d="M1.2541026553599377 0.22537374352520045 C128.5106164927259 -1.844958107672488, 258.17049619739447 -0.8586460380066643, 332.8553128003028 -0.762990640559651 M-0.4719994972848649 -0.20046224621661216 C85.00193680591032 -1.745132605100201, 168.36838426988376 -1.6777451055323638, 332.33600419783676 0.26406504634973377 M331.4779160824751 -0.6816480381710408 C331.6867536094834 95.46814158936412, 331.9155819333357 191.91774099794782, 332.5658305822968 333.73350196219747 M332.404170459367 -0.16886648055246425 C332.6745098612695 94.6526140000433, 333.47352337727006 189.3753470996643, 332.7533155137327 332.5230107473759 M331.71507965775595 332.62082062687875 C213.28587143681554 335.4990905932593, 93.00708852415364 333.25288558616666, 0.6637204097883364 333.86451721712774 M332.2458484457513 332.234410930702 C228.20839445319706 332.22804725089526, 124.03679118192538 332.7909098350436, 0.07177106824130623 332.48435297928665 M-0.3494729570008585 333.1431457731373 C-1.2620928048429518 245.70263249003764, -0.5369232197071255 158.82286439607944, 0.09821913856267699 0.30443518735090547 M0.5715186114881816 332.13342469253496 C1.6142763381673488 222.5015692204369, 1.537494576099165 111.84965473354994, -0.49360868010844516 -0.6402041521827566"
      stroke="#000000" stroke-width="1" fill="none"></path>
  </g>
  <g transform="translate(768.8008539976227 181.39287955117697) rotate(0 21.517207337788022 23.610752476823336)">
    <path
      d="M18.733034034854104 -0.652547953432876 C23.104923001382037 -1.2169838049064499, 30.33494096109505 1.4085656539534437, 34.15521698925212 4.378640604914281 C37.975493017409185 7.348715555875119, 40.58749249498844 12.2140565482364, 41.654690203796505 17.16790175233215 C42.72188791260457 22.1217469564279, 42.484339971944095 29.520856695072748, 40.558403242100496 34.10171182948877 C38.6324665122569 38.68256696390479, 34.217840739387434 42.72257687178411, 30.09906982473491 44.653032558828286 C25.980298910082393 46.58348824587246, 20.33913636529363 46.83926949990939, 15.845777754185377 45.68444595175383 C11.352419143077125 44.52962240359827, 5.680204589673478 41.66364688086641, 3.138918158085392 37.72409126989492 C0.5976317264973066 33.78453565892343, -0.07964926358473023 27.264102629362178, 0.5980591646568634 22.047112285924907 C1.275767592898457 16.830121942487636, 3.487170849750813 10.028399969652034, 7.205168727534954 6.422149209271293 C10.923166605319095 2.815898448890552, 19.894480016409094 1.352953919350941, 22.906046431361705 0.4096077236404625 C25.917612846314316 -0.5337384720700159, 25.321705151539497 0.42641424959198676, 25.274567217250613 0.7620720350084227 M22.81742504766445 0.5122550761295059 C27.57680750094694 0.24984710123568316, 33.0731176342916 3.228024844235715, 36.20986673855041 6.429880383275247 C39.34661584280922 9.631735922314778, 41.005697097863155 14.752520233168994, 41.637919673217326 19.723388310366698 C42.270142248571496 24.6942563875644, 42.15931209474958 31.9397677176117, 40.00320219067544 36.25508884646146 C37.847092286601296 40.57040997531122, 33.24647421597097 44.21074654037257, 28.70126024877249 45.61531508346525 C24.156046281574007 47.01988362655793, 16.948578069363315 46.20629045445667, 12.731918387484539 44.68250010501754 C8.515258705605763 43.15870975557841, 5.561421308478087 40.71716951015722, 3.4013021574998312 36.472572986830464 C1.2411830065215752 32.22797646350371, -1.0558523293103153 24.51769483192107, -0.22879651838499626 19.214920965056994 C0.5982592925403226 13.912147098192918, 4.779658708379138 7.7493490011699, 8.363637023051744 4.655929785646016 C11.94761533772435 1.5625105701221327, 19.31349620161206 1.4908038436240592, 21.27507336965064 0.6544056719136933 C23.236650537689222 -0.18199249979667265, 20.219400752751323 -0.5221261058401723, 20.133100031283234 -0.3624592446161792"
      stroke="#000000" stroke-width="1" fill="none"></path>
  </g>
  <g>
    <g transform="translate(788.3925752449577 228.60523799805878) rotate(0 -1.2511699832147087 26.943753601350636)">
      <path
        d="M0.7442935924977063 -0.20399654321372507 C0.5185695203669961 9.014772443187997, -1.6223944547136147 45.12455055869006, -2.3420909236949106 54.201751170457996 M-0.32409100078046316 -1.3566986737400293 C-0.6141580723694864 8.081143460435438, -3.0868532762785272 45.832774798784484, -3.2466335589271207 55.2442058764414"
        stroke="#000000" stroke-width="1" fill="none"></path>
    </g>
  </g>
  <g>
    <g transform="translate(785.7576711057691 285.1948022194415) rotate(0 10.666579177176459 16.248048842451453)">
      <path
        d="M-0.20399654321372507 0.0828625302761794 C3.4622152182714085 5.372330297900694, 17.361764434107116 26.838644378252113, 20.88640782095846 32.48110019824479 M-1.7702334577403964 -0.9192385866679251 C2.3626624145054262 4.408939710164772, 18.9127930170265 27.359370480078987, 23.10339181209337 33.41533627157111"
        stroke="#000000" stroke-width="1" fill="none"></path>
    </g>
  </g>
  <g>
    <g transform="translate(782.5268621551468 282.779468043404) rotate(0 -9.871882080620367 15.24328683252179)">
      <path
        d="M0.0828625302761794 -0.9428010385483503 C-3.3456241837262346 4.150657655356801, -16.75112802988253 24.977021062664566, -19.82662669151678 30.35675562021718 M-1.332773370668292 1.1766244708746671 C-4.474938592475578 6.4148329158708215, -14.777597585230689 26.17511485173541, -17.71786133303895 31.429374703591918"
        stroke="#000000" stroke-width="1" fill="none"></path>
    </g>
  </g>
  <g>
    <g transform="translate(767.0293365723455 238.9985628234267) rotate(0 10.811730824655456 9.755791372472459)">
      <path
        d="M-0.9428010385483503 -1.1489317674189805 C2.4777174385427854 2.280676896262306, 16.61231997859449 17.2086917220957, 20.319114319333085 20.6605145123639 M0.7630896868743005 0.8622751093469558 C4.575968878043385 3.9059130297297115, 19.2632181104903 15.43241646475786, 22.566262687859336 18.699411642983634"
        stroke="#000000" stroke-width="1" fill="none"></path>
    </g>
  </g>
  <g>
    <g transform="translate(789.6732781488663 259.1685662835521) rotate(0 14.85791195072261 -7.938039549308314)">
      <path
        d="M-1.1489317674189805 -0.8853450816124677 C3.9813837556790435 -3.584932225824173, 25.71222601917939 -14.338841236535588, 30.864755668864326 -17.140323903818583 M0.44874032534658914 1.264244805201888 C5.440696068133029 -1.140297759503897, 24.778755104666516 -12.573355687413493, 30.07818208463557 -15.55380821000502"
        stroke="#000000" stroke-width="1" fill="none"></path>
    </g>
  </g>
  <g>
    <g transform="translate(820.0784265600905 193.5858852337683) rotate(0 -29.457603586988625 8.637302958216651)">
      <path
        d="M-13.016799928046787 0.30756548456847677 C-14.696233342108414 1.7540328950373216, -18.294625196947475 7.096404033580264, -23.15085636935243 7.529872695394089 C-28.007087541757382 7.963341357207915, -38.07358596591119 1.3230551691770909, -42.1541869624765 2.9083774554514306 C-46.23478795904181 4.49369974172577, -46.55247841594221 14.60379345306194, -47.63446234874427 17.041806413040128 M-11.280744825232798 -0.5765665813721716 C-13.027522696801558 1.1055925022562727, -18.736335305000416 7.897778210153273, -24.049811390387354 8.652052318472645 C-29.363287475774293 9.406326426792017, -39.3207086102276 2.4158913719885406, -43.16160133755444 3.9490780685440616 C-47.002494064881276 5.482264765099583, -46.50613250445055 15.527287067091079, -47.09516775434837 17.85117249780577"
        stroke="#000000" stroke-width="1" fill="none"></path>
    </g>
  </g>
  <g>
    <g transform="translate(785.9052131986737 198.0552643205151) rotate(0 -21.096760099494418 7.301403245498477)">
      <path
        d="M-13.966884222051565 -4.326289322091387 C-14.145614573481215 -5.330408397147029, -15.127553622154618 -10.094898537866566, -16.495763582616917 -11.329854458975381 C-17.863973543079215 -12.564810380084197, -20.031817292793022 -13.366070068341319, -22.17614398482536 -11.736024848744274 C-24.320470676857695 -10.105979629147228, -28.904617503414936 -8.22051214442341, -29.361723734810948 -1.5495831413931107 C-29.81882996620696 5.121345861637188, -26.349627664093067 25.529823111321686, -24.918781373201426 28.28954916943752 C-23.487935082309786 31.049275227553355, -22.65307556032103 20.350828502148346, -20.776645989461105 15.008773207301903 C-18.90021641860118 9.66671791245546, -14.91757921896853 -0.4335959750631164, -13.66020394804186 -3.762782599641131 M-15.26455107199258 -5.322802824838208 C-14.959978787275684 -6.085372470000356, -12.873375102756643 -8.623588678262923, -14.19905467438685 -10.03414528544504 C-15.524734246017058 -11.444701892627158, -20.68358436532162 -15.344428096425359, -23.21862850177382 -13.786142467930913 C-25.75367263822602 -12.227856839436468, -28.874991148094722 -7.686714482314273, -29.409319493100046 -0.6844315144783708 C-29.94364783810537 6.317851453357531, -28.022679993961148 25.72080804931736, -26.424598571805774 28.2275553390845 C-24.8265171496504 30.73430262885164, -22.109133571227012 19.85458405953641, -19.820830960167804 14.356052224124479 C-17.532528349108595 8.857520388712548, -13.713068539574524 -1.4385909469642946, -12.694782905450527 -4.763635673387097"
        stroke="#000000" stroke-width="1" fill="none"></path>
    </g>
  </g>
  <g
    transform="translate(758.1924637460043 227.3437091106739) rotate(18.529685470617636 6.049512639137902 12.578976034201787)">
    <path
      d="M-0.7974710081892673 -0.4642109419283178 C2.2054940848436058 0.5521121393412021, 4.908541637945526 -0.4678641349584504, 12.032184533215204 -0.8694656302075459 M0.33121703155022286 0.5253272472049585 C2.477626210392633 0.2441145246250082, 5.742076797795468 0.089509603430779, 12.0794285138769 0.1883624633082953 M13.00585787083761 1.7160755526274443 C12.782333915949692 8.794991636539585, 13.294969564200272 13.889912282829656, 12.3635279991831 24.96879298615466 M11.156622176913482 -0.7401058590039611 C12.421784313456001 9.64614976719734, 11.699717225567284 17.67926456240499, 12.543918227700454 24.585513747327134 M11.425772094809322 24.53543040816167 C8.071358676840738 24.105886769577985, 5.039480624645467 23.8679389584944, 0.6238381163314051 23.97374787326228 M12.511944438826443 25.244507578484452 C8.462790144047629 25.135394688906565, 3.891802960697705 24.69683462971502, -0.34764282376476946 25.439267087711173 M0.37578250654041767 24.555325280904874 C-1.3243396159755763 21.644452245899267, -0.8909771916019497 15.382762484209085, 0.1948517132550478 1.6870505344122648 M0.865624344907701 25.710705108039186 C-0.14197902626762765 17.229003814685676, 0.08211515598525626 11.41448639736976, 0.02304483111947775 0.39704296831041574"
      stroke="#000000" stroke-width="1" fill="none"></path>
  </g>
  </g>







</svg>