<svg version="1.1" xmlns="http://www.w3.org/2000/svg" viewBox="0 0 1056.060660124148 352.9297492232149" width="1056.060660124148" height="352.9297492232149">
  <!-- svg-source:excalidraw -->
  
  <defs>
    <style>
      @font-face {
        font-family: "Virgil";
        src: url("https://excalidraw.com/Virgil.woff2");
      }
      @font-face {
        font-family: "Cascadia";
        src: url("https://excalidraw.com/Cascadia.woff2");
      }
    </style>
  </defs>
  <rect x="0" y="0" width="1056.060660124148" height="352.9297492232149" fill="#ffffff"></rect><g transform="translate(55.61909346109019 180.4398283656169) rotate(0 21.517207337788022 23.610752476823336)"><path d="M32.3965501676168 3.3953811363587896 C36.469015719658195 5.3027443394803955, 39.74751752145027 10.461433726142634, 41.33288557359478 15.090183553608925 C42.91825362573929 19.718933381075217, 43.262288124298784 26.408817992642604, 41.908758480483854 31.16788010115654 C40.555228836668924 35.92694220967048, 37.097064747441095 40.98590429150066, 33.21170771070521 43.64455620469255 C29.326350673969333 46.30320811788444, 23.062722421742905 47.67060062289542, 18.59661626006858 47.1197915803079 C14.130510098394254 46.56898253772037, 9.417740458350135 44.07533532847144, 6.41507074065926 40.339701949167406 C3.412401022968386 36.60406856986337, 0.9088859817328618 29.864196969102743, 0.5805979539233341 24.70599130448368 C0.2523099261138064 19.547785639864614, 1.655771705607194 13.535648557354858, 4.445342573802094 9.390467961453012 C7.234913441996994 5.245287365551168, 12.352317020183456 0.6426858900449682, 17.318023163092732 -0.16509227092738854 C22.28372930600201 -0.9728704318997453, 31.12340582041406 3.6069222374479613, 34.23957943125775 4.543798995618872 C37.35575304210144 5.4806757537897814, 36.23027378227445 5.296087961310616, 36.015064828154884 5.4561682780980725 M13.866927786241645 1.3499127326248974 C18.21381326508193 -0.7743427629148547, 24.42954463514269 0.9135102235260335, 28.73903965208859 2.1895098915672726 C33.04853466903449 3.4655095596085115, 37.34774983232161 5.023378625707801, 39.72389788791703 9.005910740872332 C42.100045943512455 12.988442856036864, 43.398574106570514 20.742430171116094, 42.99592798566114 26.084702582554456 C42.593281864751766 31.42697499399282, 40.39529289841325 37.50480656135241, 37.308021162460804 41.059545209502495 C34.220749426508355 44.61428385765258, 29.165875508488064 46.88174106814184, 24.47229756994646 47.41313447145495 C19.778719631404854 47.94452787476806, 12.962828150684656 47.17798910717409, 9.146553531211183 44.247905629381165 C5.330278911737709 41.31782215158824, 2.990322705827781 35.16764883727339, 1.5746498531056226 29.832633604697374 C0.15897700038346407 24.497618372121355, -1.2138826623609689 16.959762033930208, 0.6525164148782316 12.237814233925047 C2.518915492117432 7.515866433919887, 10.913306996759095 3.3085963613650335, 12.773044316540826 1.5009468046664125 C14.632781636322557 -0.30670275203220854, 11.474219985507746 0.7203855302155393, 11.810940333568613 1.3919168937333204" stroke="#000000" stroke-width="1" fill="none"></path></g><g><g transform="translate(75.21081470842523 227.6521868124987) rotate(0 -1.6837931081569195 28.445659270846136)"><path d="M-0.1827437181025744 1.1779834706336259 C-0.6984267440907065 10.58809080542402, -2.958561098809989 47.02447338259601, -3.184842498211207 56.140497694315115 M-1.7378228994458915 0.7508208473771809 C-1.860077375667483 9.870453962845373, -0.8545074085254986 45.68015710524106, -0.871829710064473 54.5407943253235" stroke="#000000" stroke-width="1" fill="none"></path></g></g><g><g transform="translate(72.57591056923661 284.2417510338814) rotate(0 11.581220204096098 16.877332130442483)"><path d="M1.1779834706336259 -0.759889044240117 C5.0355335805074315 5.022993792964475, 19.261687258013062 28.81327714211472, 22.825154344815576 34.51455330512498 M0.3372860633768142 1.4555652621947228 C4.151972916915361 6.926201540137039, 18.76017532348307 27.320685444969467, 22.399980260975475 32.856352259563394" stroke="#000000" stroke-width="1" fill="none"></path></g></g><g><g transform="translate(69.34510161861431 281.8264168578439) rotate(0 -8.617407433426138 16.2224453767642)"><path d="M-0.759889044240117 0.9959454853087661 C-3.6949606886624533 6.128227879165089, -14.77649526601992 26.875165474705277, -17.79317358463659 31.97167783377156 M1.0420304781943561 0.47321291975677005 C-1.9576767625033096 5.77062750717846, -14.816282620340209 24.799785080097493, -18.276845345046663 30.23213107926235" stroke="#000000" stroke-width="1" fill="none"></path></g></g><g><g transform="translate(53.84757603581306 238.04551163786664) rotate(0 10.99685733432193 10.957856363898145)"><path d="M0.9959454853087661 0.8845213394612073 C4.455287662351073 4.3729503461600725, 18.5104643906352 16.93760533922979, 21.93403653288747 20.17068499595307 M0.05967813575640313 0.30329109733924264 C3.3217634693510245 4.046630040823805, 17.88788833885238 18.069009730887352, 21.369019063529766 21.61242163045712" stroke="#000000" stroke-width="1" fill="none"></path></g></g><g><g transform="translate(76.49151761233384 258.215515097992) rotate(0 15.132341232896238 -9.059562872665538)"><path d="M0.8845213394612073 0.7295771319419144 C6.07365720557681 -2.253232210756119, 25.44113963631348 -13.949628556672613, 30.374926152453497 -16.900910570879436 M-0.11024368666112427 0.06700118087232121 C4.971413079227123 -2.769455236525115, 24.365348370796006 -16.249806350622457, 29.331192072109058 -18.84870287727282" stroke="#000000" stroke-width="1" fill="none"></path></g></g><g><g transform="translate(106.89666602355805 192.63283404820822) rotate(0 -29.806186601232753 8.800864369716919)"><path d="M-11.401877714492406 -0.18226403184235096 C-13.36453332704036 1.0454602450815722, -17.9054125170845 7.581673699298342, -22.91144303641328 8.250867001004746 C-27.917473555742063 8.92006030271115, -37.22155208853846 2.250349828791654, -41.43806083046509 3.8328957783960718 C-45.65456957239172 5.41544172800049, -47.11196416137221 15.267375801885487, -48.21049548797309 17.746142698631253 M-12.477988449562366 -1.323556593898684 C-14.656680173822776 0.025019211073754377, -18.752785968209377 9.247814450373342, -23.684706057655152 9.751568634528896 C-28.616626147100927 10.25532281868445, -38.02135694723417 0.17001572790074904, -42.069508986237025 1.6989685110346393 C-46.11766102523988 3.22792129416853, -46.74934826623129 16.53925014904699, -47.97361829167232 18.925285333332237" stroke="#000000" stroke-width="1" fill="none"></path></g></g><g><g transform="translate(72.7234526621412 197.10221313495504) rotate(0 -21.27966444162655 8.777058238544896)"><path d="M-14.456713738462392 -4.08687598915224 C-14.854187223436963 -5.24079441113171, -14.64228395643654 -9.242864660493824, -15.77476927700626 -10.613728326963967 C-16.90725459757598 -11.98459199343411, -19.104522633178455 -13.925555813771311, -21.251625661880716 -12.312057987973095 C-23.398728690582978 -10.698560162174878, -28.241035154591387 -8.036952082968638, -28.657387449219822 -0.9327413721746658 C-29.073739743848257 6.171469338619305, -25.321901180748036 27.71490065934872, -23.749739429651317 30.31320627679073 C-22.1775776785546 32.91151189423274, -20.774754747142016 20.374801466435148, -19.22441694263951 14.65709233247738 C-17.674079138137007 8.93938319851961, -15.31862013064303 -0.6794434148290462, -14.447712602636281 -3.9930485269558895 M-16.01154108451909 -4.957697492106007 C-16.6505520784582 -6.558711141326993, -15.793338862536572 -11.594237015269494, -16.759538358330598 -12.602052934127636 C-17.725737854124624 -13.609868852985779, -19.879460009409414 -13.147643858206097, -21.808738059283243 -11.004593005254865 C-23.738016109157073 -8.861542152303633, -27.86302806613881 -6.186785388595744, -28.33520665757358 0.2562521835797573 C-28.807385249008348 6.699289755755259, -25.845397106859973 25.39305131005859, -24.641809607891854 27.653632427798144 C-23.438222108923735 29.9142135455377, -22.90469433112901 19.281142830073787, -21.113681663764872 13.81973889001708 C-19.322668996400733 8.358334949960373, -14.934655929878135 -1.813508292607338, -13.895733603707018 -5.114791212542103" stroke="#000000" stroke-width="1" fill="none"></path></g></g><g transform="translate(45.01070320947224 226.39065792511383) rotate(18.529685470617636 6.049512639137902 12.578976034201787)"><path d="M-0.07052698076624875 0.25782473920834414 C4.765890355158595 -0.05281338643986032, 8.875187628967272 0.1299289785208506, 13.210873535413322 1.1708909111615304 M0.21513397841243653 0.1388756026303949 C3.912503203478953 0.3354209579250103, 8.868850053802607 0.4293755811386573, 11.69052500386509 0.2746524559337563 M12.712348268290919 1.7140510212630033 C10.840390608727034 8.017147588707807, 13.663424358784255 12.716253601343041, 10.47386895205633 25.236929129839048 M12.934271639136535 0.17708510998636484 C12.291637418540944 8.864486651774712, 12.80679681685828 16.050737108663157, 11.14066902354167 24.34317979871492 M11.15535792618038 26.221371780155838 C9.322988999104332 25.279397719570493, 4.2241373253169705 24.94254855534683, 0.7376731393699958 25.946668631878026 M11.592218948710777 25.338730310252156 C10.074309478099615 24.657232322587404, 7.071939897146319 25.204294620929165, -0.007059719226851446 25.570758116432366 M1.7224325109273195 24.69768704104434 C-1.275108471841203 19.51975624430589, 0.022607132464064428 16.222576103695367, -1.1427824925631285 0.7463014852255583 M-0.4916863674297929 24.96530986487131 C1.1535205035523322 16.364889114925585, -0.6484644920512292 8.29536073711121, 0.06991846021264791 -0.9660070752725005" stroke="#000000" stroke-width="1" fill="none"></path></g><g transform="translate(35.23463245537414 55.930464481567014) rotate(0 53 50.5)">
  __STRIP_1_LEFT__
  </g><g transform="translate(438.75156535157976 67.45353904036938) rotate(0 62 37.5)">
  __STRIP_2__
  </g>
  <g transform="translate(798.9597301116246 94.06302345091808) rotate(0 58.5 12.5)">
  __STRIP_3__</g>
  <g transform="translate(713.374813339969 9.999999999999545) rotate(89.99999999999994 166.34292339208946 166.34292339208946)"><path d="M-0.23076863497396513 1.2499614528296425 C75.62271765514652 -1.7912003765793076, 147.73474396619324 -1.782309805865935, 331.83013792936185 1.2205763839043966 M-0.1802744974257827 0.35535079731645525 C103.48651280308836 0.8484498179537292, 208.5653526290009 0.48598126817672094, 332.347013498751 -0.49554329642578315 M332.324211141259 -0.15308179097876246 C332.3564231179847 81.97834751223895, 333.1668159454539 164.46166595629765, 332.5171372337966 331.95065431435387 M332.73191818167595 0.12028519604022338 C334.1468707095514 96.69589510256048, 334.2639370925658 194.03069982611856, 333.32025035838194 333.358319203542 M333.4095844029286 333.78034287076076 C228.60268833085095 333.94782992817966, 126.4158032910359 335.0054831077282, -0.9693292439645351 331.4322687993346 M332.4485540446923 332.6224718299553 C216.1756510694577 332.55168437814797, 100.54769692307667 332.75616020144946, 0.31033884267979306 333.0017493381518 M0.3218233341750626 333.4580421529234 C0.32086841402306193 229.81989715516042, -0.056421091594338946 125.55627288335891, -0.0015928774824330188 -0.8627071295496525 M-0.3252654090709594 332.7493088383107 C0.06511222101450098 229.92081441088698, 0.02575796722992285 128.71606531823275, 0.4553825956354195 0.4432412715544654" stroke="#000000" stroke-width="1" fill="none"></path></g><g transform="translate(360.8163265306107 10.243902439035992) rotate(89.99999999999994 166.34292339208946 166.34292339208946)"><path d="M1.2499614528296425 1.2541026553599377 C100.81605779291846 -0.6186187396922063, 201.4156324130251 -0.4718415611294271, 333.9064231680834 0.1694660161237839 M0.35535079731645525 -0.4719994972848649 C80.90823522709765 1.2480757665513336, 161.6544641506349 0.2609144528689065, 332.19030348775317 -0.34984258634223725 M332.5327649932002 -1.2079307017039018 C331.7680201206922 112.35002395045841, 331.59134301434085 225.32641409900384, 331.9506543143538 332.5658305822969 M332.8061319802192 -0.2816763248120106 C332.1467340699855 125.31389429449553, 332.6167772104306 251.59141204678915, 333.35831920354195 332.75331551373273 M333.7803428707607 331.715079657756 C240.79564834082447 333.8444722575624, 150.02812923431875 332.9204038529309, -1.2535779848444275 333.34956719396735 M332.62247182995526 332.24584844575134 C203.54538286660429 331.89865231594507, 75.06083062580817 332.2067462671401, 0.3159025539727847 332.75761785242037 M0.7721953687443623 332.3363738271782 C1.3605018346984816 242.02852630231618, 0.42012618087383863 152.82313786820745, -0.8627071295496525 0.09821913856267699 M0.06346205413165329 333.2573653956672 C-1.2878458086470475 225.95208444557318, -0.2799846196533273 118.60937598719555, 0.4432412715544654 -0.49360868010844516" stroke="#000000" stroke-width="1" fill="none"></path></g><g transform="translate(10.000000000000455 10.039820806390708) rotate(89.99999999999994 166.34292339208946 166.34292339208946)"><path d="M1.2541026553599377 0.22537374352520045 C128.5106164927259 -1.844958107672488, 258.17049619739447 -0.8586460380066643, 332.8553128003028 -0.762990640559651 M-0.4719994972848649 -0.20046224621661216 C85.00193680591032 -1.745132605100201, 168.36838426988376 -1.6777451055323638, 332.33600419783676 0.26406504634973377 M331.4779160824751 -0.6816480381710408 C331.6867536094834 95.46814158936412, 331.9155819333357 191.91774099794782, 332.5658305822968 333.73350196219747 M332.404170459367 -0.16886648055246425 C332.6745098612695 94.6526140000433, 333.47352337727006 189.3753470996643, 332.7533155137327 332.5230107473759 M331.71507965775595 332.62082062687875 C213.28587143681554 335.4990905932593, 93.00708852415364 333.25288558616666, 0.6637204097883364 333.86451721712774 M332.2458484457513 332.234410930702 C228.20839445319706 332.22804725089526, 124.03679118192538 332.7909098350436, 0.07177106824130623 332.48435297928665 M-0.3494729570008585 333.1431457731373 C-1.2620928048429518 245.70263249003764, -0.5369232197071255 158.82286439607944, 0.09821913856267699 0.30443518735090547 M0.5715186114881816 332.13342469253496 C1.6142763381673488 222.5015692204369, 1.537494576099165 111.84965473354994, -0.49360868010844516 -0.6402041521827566" stroke="#000000" stroke-width="1" fill="none"></path></g><g transform="translate(257.54561673717217 182.3902267685021) rotate(0 25.579106812955047 23.543125841795472)"><path d="M25.05086945891223 0.3840078291292528 C30.024209860277875 0.11052835401686423, 36.599096347682426 3.1235646266271906, 41.02278065003191 6.149308102294839 C45.4464649523814 9.175051577962487, 50.59705877825196 13.797678530119214, 51.59297527300915 18.538468683135143 C52.58889176776634 23.279258836151072, 49.72812778670357 30.020637881297375, 46.99827961857507 34.59404902039042 C44.26843145044657 39.16746015948347, 40.376306959695654 44.205835777629574, 35.21388626423818 45.978935517693415 C30.0514655687807 47.75203525775726, 21.256768380930538 46.92396083320668, 16.023755445830208 45.23264746077348 C10.790742510729878 43.54133408834028, 6.408121396909603 40.20593143554334, 3.8158086536361893 35.831055283094194 C1.2234959103627747 31.456179130645047, -0.24930157000229924 24.095370865923993, 0.4698789861897197 18.983390546078606 C1.1890595423817385 13.87141022623322, 3.6193912152457246 8.408867689521731, 8.130891990788303 5.159173364021878 C12.642392766330882 1.9094790385220253, 23.861842767133236 0.10813983944080618, 27.538883639445192 -0.5147754069205135 C31.215924511757148 -1.1376906532818332, 30.061059262489188 0.7789517244396601, 30.193137224660035 1.4216818858539604 M20.964088510172964 1.6551262727713407 C26.183472246809483 0.43572263435766145, 34.583712781562454 -0.23582859858581928, 39.36626626283071 2.167248853843443 C44.14881974409897 4.570326306272705, 47.81315992230401 10.94659621121005, 49.65940939778252 16.073590987346915 C51.50565887326103 21.20058576348378, 52.193038437285985 28.013777208811014, 50.44376311570178 32.929217510664635 C48.69448779411757 37.84465781251826, 44.121516335302225 43.438268186530024, 39.16375746827728 45.56623279846864 C34.20599860125234 47.694197410407256, 26.224164844909755 46.934083362384754, 20.697209913552136 45.69700518229631 C15.170254982194518 44.45992700220786, 9.617901601201545 41.684278882845845, 6.002027880131564 38.14376371793797 C2.3861541590615825 34.6032485530301, -1.0781969259313744 29.702922024004465, -0.9980324128677545 24.453914192849062 C-0.9178678998041345 19.20490636169366, 2.727838103446136 10.730723121093698, 6.483014958513284 6.649716731005551 C10.238191813580432 2.568710340917404, 19.110626730423988 1.163091427404936, 21.53302871753513 -0.03212414767981997 C23.955430704646275 -1.227339722764576, 20.722747330280303 -1.1038366392838381, 21.017426881180157 -0.5215767195029848" stroke="#000000" stroke-width="1" fill="none"></path></g><g><g transform="translate(280.3127775304838 229.15366732290704) rotate(0 -0.4565151521952657 28.261631536319328)"><path d="M-0.3502229232341051 -0.010727433487772942 C-0.5282832480599905 9.690931987831812, -1.4914019873392708 47.992664604235785, -1.9341866621407422 57.58522635404658 M1.6667713127285242 -1.0619632814079525 C1.4568544462690327 8.33257494411848, -1.6297748110842831 46.308089608747856, -2.57980161711897 55.72573460002136" stroke="#000000" stroke-width="1" fill="none"></path></g></g><g><g transform="translate(277.78505441424477 287.58540841393506) rotate(0 10.81130295446394 17.712871404550015)"><path d="M-0.010727433487772942 0.5760581117123365 C3.9430782578800927 6.35379412173568, 19.253395954477195 28.79215852763945, 23.098103974336272 34.31619313690596 M-1.4754980654083192 -0.16711532497778525 C2.4187973931533406 5.802172896687825, 18.411625301814233 29.820983833768164, 22.413141505462562 35.592858134077574" stroke="#000000" stroke-width="1" fill="none"></path></g></g><g><g transform="translate(274.41198497806 285.14628709431645) rotate(0 -10.232033607488347 16.260037801037242)"><path d="M0.5760581117123365 0.5011104661971331 C-2.6707913359173614 5.96981271952221, -16.33076876062576 27.35309976636515, -19.831319609012294 32.80148608646269 M-0.5806501089781524 -0.2814104843884706 C-3.998336381978639 4.8228942956013405, -18.119139111672084 25.65788440927015, -21.04012532668917 30.920688105885937" stroke="#000000" stroke-width="1" fill="none"></path></g></g><g><g transform="translate(248.32129890375745 261.2360223515493) rotate(0 14.820830981817608 -10.36238721107543)"><path d="M0.5011104661971331 -0.4966861981898546 C5.558999577115793 -3.964043920802075, 25.299034054333067 -17.29031767481068, 30.33660723202419 -20.228088223960984 M-0.6949452683888375 -1.803050397578627 C4.246157332181502 -5.2120491439459204, 24.44662304006303 -16.24238750378662, 29.63033853659895 -19.264285095826523" stroke="#000000" stroke-width="1" fill="none"></path></g></g><g><g transform="translate(277.7306651851113 241.1091187045099) rotate(0 10.960814057851508 12.986830110447045)"><path d="M-0.4966861981898546 0.4605271775275468 C2.787301099959209 4.763168803245243, 16.46640742899574 22.311868414731908, 20.279981900606717 26.316960220503315 M1.4434148184210063 -0.34329999960958957 C5.033372055801943 3.5842782878283828, 18.967141942844762 20.367586420776533, 22.41831431389269 24.640881947594387" stroke="#000000" stroke-width="1" fill="none"></path></g></g><g transform="translate(211.51256463341997 109.89425725876617) rotate(0 53 37.5)">
  __STRIP_1_RIGHT__
  </g><g transform="translate(422.22956493512265 185.10686880898947) rotate(0 21.517207337788022 23.610752476823336)"><path d="M27.20699805318255 -0.36354066943827945 C31.62763318424405 0.26684964203112127, 36.842980284513295 4.709980954566019, 39.41255071417001 8.898761633382458 C41.982121143826724 13.087542312198897, 42.924507670153524 19.641162041401884, 42.624420631122845 24.769143403460355 C42.32433359209217 29.897124765518825, 40.792070035385095 35.868142471061496, 37.61202847998594 39.666649805733286 C34.43198692458678 43.465157140405076, 28.059959339345692 46.84711465767159, 23.544171298727925 47.5601874114911 C19.028383258110157 48.27326016531061, 14.19657257979337 46.67616388599344, 10.517300236279327 43.94508632865036 C6.838027892765284 41.214008771307284, 3.0855024586767907 36.1002390586185, 1.468537237643666 31.17372206743262 C-0.1484279833894584 26.247205076246747, -0.8218850656996795 19.180198292810662, 0.815508910080581 14.385984381535108 C2.4529028858608415 9.591770470259554, 6.820255936805657 4.561315581325817, 11.292901092325229 2.4084385997792914 C15.765546247844801 0.2555616182327656, 24.56823668772424 1.4417418037155596, 27.651379843198015 1.468722492255953 C30.73452299867179 1.4957031807963463, 29.897779322901933 2.2814596742524897, 29.791760025167882 2.570322731021651 M21.274364677047664 -0.09325419711446514 C25.485039248277356 -0.048070923974455816, 31.046206903821663 2.9448873959075588, 34.46954486510183 6.467655907897104 C37.892882826382 9.990424419886649, 40.786835092848676 16.29303973228634, 41.81439244472868 21.043356874822805 C42.84194979660869 25.793674017359272, 42.961481570778176 30.613205899371003, 40.63488897638187 34.969558763115906 C38.30829638198557 39.32591162686081, 32.296708386342104 45.282749838167746, 27.85483687835085 47.18147405729222 C23.412965370359597 49.080198276416695, 18.008470077148914 48.332204131641916, 13.98365992843436 46.36190407786273 C9.958849779719806 44.39160402408355, 5.830358773657457 39.94878702326652, 3.7059759860635317 35.35967373461713 C1.5815931984696063 30.770560445967742, 0.3626763319133177 23.87160237878959, 1.2373632028708066 18.8272243459664 C2.1120500738282955 13.78284631314321, 5.75324321856565 8.340070802747729, 8.954097211808465 5.093405537677995 C12.15495120505128 1.8467402726082622, 18.363249036826875 0.26843598780807676, 20.442487162327698 -0.6527672444519972 C22.52172528782852 -1.5739704767120712, 21.12152551747637 -1.1475060959996006, 21.429525964813397 -0.43381385588244825" stroke="#000000" stroke-width="1" fill="none"></path></g><g><g transform="translate(441.8212861824577 232.31922725587128) rotate(0 -1.5617246801230067 27.712403799398544)"><path d="M-0.11479067020118228 0.5395587187260389 C-0.40065342088261274 10.00417538331227, -1.9796190048117954 46.73829276940607, -2.186041829345765 55.64758449807922 M-1.6341945013962687 -0.22277689928188926 C-2.01597305777514 8.979982944124954, -3.021620715178253 44.6337316701264, -3.0086586900446735 53.789101701063764" stroke="#000000" stroke-width="1" fill="none"></path></g></g><g><g transform="translate(439.1863820432691 288.908791477254) rotate(0 10.847964732648734 17.010197042222217)"><path d="M0.5395587187260389 0.23891162462532511 C4.451618158395681 6.041653036697165, 18.975506644823124 28.98889785072931, 22.33224114857968 34.70165780222986 M-0.6363116832822562 -0.6812637177854777 C3.2615018981949433 4.819656886829392, 17.71374988836842 27.588507025606713, 21.648287636715736 33.14168661764834" stroke="#000000" stroke-width="1" fill="none"></path></g></g><g><g transform="translate(435.9555730926468 286.4934573012165) rotate(0 -8.87629968116812 15.37422524661497)"><path d="M0.23891162462532511 0.5030322890728711 C-2.676301444929763 5.428582099883235, -14.600874557405332 25.06239100947219, -17.606069087531708 30.092857583588216 M-1.0947985017858446 -0.2784797045029699 C-4.064221415810956 4.7036676937736335, -15.15846103970296 25.695304020617037, -17.991510986961714 31.02693019773275" stroke="#000000" stroke-width="1" fill="none"></path></g></g><g><g transform="translate(420.4580475098455 242.7125520812392) rotate(0 10.735901846748334 10.9135069255924)"><path d="M0.5030322890728711 1.0716258365660905 C3.7556418830692184 4.571538631755251, 16.697689925402113 18.101394072861165, 20.055216282704123 21.238388395760285 M-0.692014488503337 0.5886254554241894 C2.8648036559461962 3.7394771763564525, 18.78340727937192 16.1837875496752, 22.163818182000167 19.580669315163124" stroke="#000000" stroke-width="1" fill="none"></path></g></g><g><g transform="translate(443.1019890863663 262.8825555413646) rotate(0 15.80886011184225 -8.464149088737258)"><path d="M1.0716258365660905 -1.1492431182414293 C6.272245491171988 -4.198098245889719, 26.604928369944854 -15.103667436692993, 31.442629552260712 -17.79009847681687 M0.17509067142382273 0.8618002993427218 C5.274260214759769 -2.075375940103854, 26.140126189583853 -13.739715642653534, 30.959439756815062 -16.544714433827405" stroke="#000000" stroke-width="1" fill="none"></path></g></g><g><g transform="translate(473.5071374975905 197.2998744915808) rotate(0 -29.943719530340218 8.920352981701853)"><path d="M-13.280697964675749 0.8854393679648636 C-15.30939936217396 2.017078311064629, -19.05945139710488 7.370896235534389, -23.800630942350715 7.861459495164683 C-28.54181048759655 8.352022754794975, -37.66050543827777 2.3332045624077677, -41.72777523615075 3.8288189257466216 C-45.79504503402373 5.3244332890854755, -47.23111777794959 14.403149994844556, -48.204249729588625 16.835145675197804 M-11.683189331091965 0.3046910908073186 C-13.962600877401517 2.1167367616979167, -19.902695260240456 8.926378818133315, -25.04071761420974 9.1577221881228 C-30.178739968179023 9.389065558112286, -38.69076080558662 0.2963691966653228, -42.51132345490767 1.6927513107442276 C-46.331886104228715 3.0891334248231326, -46.931057531511804 14.61130579330957, -47.96409351013601 17.53601487259623" stroke="#000000" stroke-width="1" fill="none"></path></g></g><g><g transform="translate(439.33392413617366 201.7692535783276) rotate(0 -21.576853343681933 8.935390433414796)"><path d="M-13.389010338655178 -4.9760638950896725 C-13.882569157453906 -5.865131342986196, -14.85306142020049 -9.681818010233139, -16.164176782846322 -10.903442732649632 C-17.475292145492155 -12.125067455066125, -19.021667899562342 -14.044709430348698, -21.255702514530167 -12.305812229588629 C-23.489737129497993 -10.566915028828559, -29.10526096163232 -7.480883755690738, -29.56838447265327 -0.4700595280892108 C-30.03150798367422 6.540764699512317, -25.74767514929562 27.179664898987767, -24.03444358065587 29.759133136020534 C-22.321212012016122 32.3386013730533, -20.74014313085836 20.712131094753698, -19.288995060814777 15.00674989410739 C-17.837846990771194 9.301368693461082, -16.080131566002745 -1.1979396637001343, -15.327555160394374 -4.473154067857312 M-14.38329339981309 -2.653709048660593 C-15.16883452783404 -3.2408249624050858, -16.1147744947766 -7.993640873621945, -17.353384804736695 -9.383867402798272 C-18.59199511469679 -10.774093931974598, -19.75310654064484 -12.109353123486613, -21.814955259573654 -10.995068223718555 C-23.87680397850247 -9.880783323950496, -29.180972421876227 -9.608781189496948, -29.724477118309586 -2.698158004189924 C-30.267981814742946 4.2124651811171, -26.494702408895037 27.626816775508132, -25.0759834381738 30.468670888123594 C-23.657264467452563 33.310525000739055, -22.85191161629644 20.405570513259576, -21.212163293982158 14.352966671502847 C-19.572414971667875 8.300362829746119, -16.095960868801704 -2.604215072135748, -15.23749350428811 -5.846952162416773" stroke="#000000" stroke-width="1" fill="none"></path></g></g><g transform="translate(411.62117468350425 231.0576983684864) rotate(18.529685470617636 6.049512639137902 12.578976034201787)"><path d="M-0.46314791882535233 -0.03428042061427927 C2.8674553848614126 0.04313647053372892, 4.168024011003554 0.6860814803955655, 12.923819975427145 0.6122454998121754 M-0.02689973307117066 -0.2516027194885324 C4.139786202874994 -0.14687019809486426, 8.716288981438995 0.21416276876469478, 12.295478107858854 -0.24147630753917276 M10.759906512608689 -0.6019375156611204 C11.978085030572984 5.739917261001432, 13.164970447080705 13.00952357880168, 13.841619891038102 25.942504718929634 M12.113328464252811 0.429090297780931 C12.578368195765515 6.561736508720743, 12.542769172661801 12.628135733271394, 12.837311424238544 24.968503837503597 M11.36734368269305 25.630244037609128 C10.526670560215608 26.287654160328795, 6.105996686183962 24.710592986447068, -0.056760291164991594 24.5012602447338 M11.937605219752417 25.02258629719208 C8.636519622638597 24.762648782551768, 4.493292707405014 25.024539241001325, -0.35309340770259373 24.88297836357788 M-1.3731035459786654 24.076684132248268 C-1.686454652195073 14.250951295663262, 0.4596478358458511 6.784244414278451, -1.0504577029496431 1.356220917776227 M-0.9204322909936309 24.970833514846966 C-0.42155038561930225 20.093156142692855, -0.8261927589427428 14.393555514618333, -0.26647000666707754 -0.7736918264999986" stroke="#000000" stroke-width="1" fill="none"></path></g><g transform="translate(920.6884390027972 177.5334152450646) rotate(0 25.579106812954933 23.543125841795472)"><path d="M19.083767892951748 -0.01627575852219465 C24.001437236352015 -1.6326168682000157, 31.404344331102525 0.4647904410554333, 36.31891326050637 2.7492841988187635 C41.23348218991021 5.033777956582094, 46.17807799668075 9.368770901765023, 48.571181469374814 13.690686788057786 C50.96428494206888 18.012602674350546, 51.83562917035846 23.89123506810221, 50.67753409667077 28.68077951657534 C49.51943902298308 33.47032396504847, 45.95417894184996 39.24792271865493, 41.622611027248674 42.42795347889657 C37.29104311264739 45.60798423913821, 30.282777249385116 47.94081419457597, 24.688126609063037 47.7609640780252 C19.093475968740957 47.58111396147442, 12.028278807832725 44.89552467170398, 8.054707185316193 41.34885277959194 C4.081135562799661 37.80218088747989, 1.4659795837349385 31.632488403156223, 0.8466968739638432 26.480932725352947 C0.22741416419274785 21.32937704754967, 1.1326458373186923 14.74658313139258, 4.339010926689621 10.439518712772271 C7.545376016060549 6.1324542941519615, 17.17167947401859 2.1994493034635934, 20.084887410189417 0.6385462136310913 C22.998095346360245 -0.9223568762014109, 21.570667646917208 0.5899243879771479, 21.8182585437146 1.074100173777257 M36.20993284181067 3.22169977857617 C41.03005994599969 4.8456093330027095, 46.30387949388901 7.586436982552561, 48.8968250469718 11.870578852004668 C51.489770600054584 16.154720721456776, 52.908415896751166 23.826639533029592, 51.767606160307366 28.92655099528881 C50.62679642386357 34.02646245754803, 46.872622741751336 39.269415756142855, 42.05196662830899 42.470047625559985 C37.23131051486664 45.670679494977115, 28.498073204058045 48.61137163126249, 22.843669479653276 48.13034221179161 C17.189265755248506 47.64931279232072, 11.806595231344545 43.339059702857455, 8.125544281880376 39.58387110873467 C4.444493332416208 35.828682514611884, 1.2532233278253226 30.500470891621976, 0.7573637828682678 25.599210647054882 C0.2615042379112129 20.697950402487788, 2.0657794249654224 14.533969565101582, 5.150387012138047 10.1763096413321 C8.234994599310673 5.818649717562617, 14.004255853162743 1.0052261620914387, 19.265009305904016 -0.5467488955620148 C24.52576275864529 -2.098723953215468, 33.79835493288962 0.3773015469211855, 36.714907728585686 0.864459295411379 C39.63146052428175 1.3516170439015724, 37.08491864703794 1.834586120426449, 36.764326080080394 2.3761975953791463" stroke="#000000" stroke-width="1" fill="none"></path></g><g><g transform="translate(943.4555997961088 224.29685579946954) rotate(0 -1.4199021704137067 28.56529140716725)"><path d="M-0.15150896497070798 -0.6892481010407209 C-0.3710659481217887 9.127217304775932, -1.7622230937731391 48.38703593497385, -2.005330110493556 57.81983091537547 M-1.6901899009197952 1.5632927005738022 C-1.9633891713252094 11.132910052458266, -2.6527769983959324 46.90950588812341, -2.6882953758570105 56.083506556047915" stroke="#000000" stroke-width="1" fill="none"></path></g></g><g><g transform="translate(940.9278766798698 282.72859689049756) rotate(0 11.321730217312052 17.718681979970142)"><path d="M-0.6892481010407209 0.5049146633595227 C3.3793635748242146 6.482328331463922, 19.647767285215263 29.890664584901874, 23.33270853566516 35.71297304365569 M1.149757916573435 -0.27560908371582626 C5.219132501493127 5.388187566523391, 19.013041581189785 28.44620557109335, 22.770913461489116 34.0629474918709" stroke="#000000" stroke-width="1" fill="none"></path></g></g><g><g transform="translate(937.554807243685 280.28947557087895) rotate(0 -9.20256065276817 16.080219809705795)"><path d="M0.5049146633595227 0.7357150275260209 C-2.54225712618912 6.044650511441919, -15.232262703363336 25.738989880672555, -18.434539702262565 31.164364802454664 M-0.6891438677161932 0.07636147163808338 C-3.8023217121430717 5.5470219282788955, -15.833917374346893 26.856366833588936, -18.91003596889584 32.084078147773695" stroke="#000000" stroke-width="1" fill="none"></path></g></g><g><g transform="translate(911.4641211693825 256.3792108281118) rotate(0 15.228277633062135 -9.701739711598066)"><path d="M0.7357150275260209 0.9000937085598706 C5.633837369035502 -2.2689901645650448, 23.68492416864047 -15.188609942133217, 28.699485948016164 -18.50958857538997 M-0.33717331236228354 0.32703896021470413 C4.970284964859058 -3.23709216568445, 25.64510546438182 -17.307283211453495, 30.793728578486707 -20.303573131755726" stroke="#000000" stroke-width="1" fill="none"></path></g></g><g><g transform="translate(940.8734874507363 236.2523071810724) rotate(0 10.955992862695894 12.618451142729555)"><path d="M0.9000937085598706 -1.1765941064804792 C4.482354856196239 3.1030361209217885, 18.5681151616732 21.845832488389895, 21.998481549177733 26.413496391939624 M-0.08649582378566256 0.8200900422781707 C3.3483290340634135 4.712575947285114, 17.902246235177888 20.876881633104965, 21.379026277963487 24.78809960903476" stroke="#000000" stroke-width="1" fill="none"></path></g></g></svg>