svg<svg version="1.1" xmlns="http://www.w3.org/2000/svg" viewBox="0 0 716.3895504878828 353.42658752491934" width="716.3895504878828" height="353.42658752491934">
  <!-- svg-source:excalidraw -->
  
  <defs>
    <style>
      @font-face {
        font-family: "Virgil";
        src: url("https://excalidraw.com/Virgil.woff2");
      }
      @font-face {
        font-family: "Cascadia";
        src: url("https://excalidraw.com/Cascadia.woff2");
      }
    </style>
  </defs>
  <rect x="0" y="0" width="716.3895504878828" height="353.42658752491934" fill="#ffffff"></rect><g transform="translate(10 10) rotate(0 166.34292339208946 166.34292339208946)"><path d="M-1.3328433517231557 0.23656335630777112 C121.87414626426836 1.4611080832653442, 244.9695699903943 0.9641980698371118, 331.70014393593004 1.2300229212692924 M0.5335017971657552 -0.15109076082219725 C99.69210668655967 -1.1139476057021804, 199.6317627889902 -2.2491519426937336, 333.09616450168204 0.03409972396327772 M333.79981096647174 -0.703830181023165 C332.7538380028948 129.6802401719533, 335.21842894412106 257.5950479020584, 333.954387053116 332.0092644716978 M332.0269695418424 0.4517407720640465 C333.0474161409322 93.67275827952254, 333.52808252918004 187.94323949399958, 332.2609720050839 333.21833383270973 M332.364964779411 333.9085164689094 C246.34750626902778 334.2041127240623, 158.8902717524497 333.3860751427175, 0.8139303314301148 332.20708926930536 M332.8168177608677 332.31943290266867 C247.2423395280099 334.0997992479248, 161.53862164581835 333.2857677945219, -0.6037092553498206 332.4883705979883 M-0.6883511996468481 331.83509906739096 C0.2575035153421994 255.72415289078592, 0.9474110339518993 179.27426749767966, -1.1140876093372694 0.17638916091116472 M-0.5151120993902831 332.63833326599445 C-0.9002634168829308 245.90087705556874, -0.8367044846974081 160.79636396660615, -0.3617443430032345 0.030362334140762913" stroke="#000000" stroke-width="1" fill="none"></path></g><g transform="translate(373.7037037037039 10.74074074074042) rotate(0 166.34292339208946 166.34292339208946)"><path d="M0.7901780839909087 -1.1867604335325104 C67.43774657943001 1.0170974675416664, 135.51897993900397 2.003580522948654, 332.3336855988435 1.0259693201673536 M0.592679754570142 -0.017983174851646497 C125.41011185806835 0.8520123914696437, 251.93937260494278 1.0261991791092373, 333.10969869347383 0.3247438856176072 M333.9138116861098 1.1224868463936528 C332.2055724473627 128.37194412729409, 330.838492772868 253.9641516076079, 333.03391101045503 332.1090300366503 M332.4991297321165 0.26325553573140953 C334.4130132278192 67.08935584164898, 334.72121144552034 134.76899172015519, 333.2943131836991 333.07655728028305 M332.90427420162405 333.0686169054988 C240.1436838799382 334.74873311626266, 148.32198378862333 333.3484241877377, -1.2847980957253669 333.2889667480305 M333.0965518684929 332.411759377861 C226.05788879747035 332.05905448681295, 120.03910736274895 332.1851639358693, -0.36531262975857204 332.88999971877666 M-0.5630699526591574 332.41791440240905 C0.8008272177652745 248.63402504719238, 1.5915477837078609 166.25840047455708, 0.24426649457162006 -1.355482171352497 M-0.5054168733091637 332.2554623274194 C0.8276936433387667 257.7639531252018, 0.18843308445014054 182.9492014079161, -0.6474249617621716 -0.6468197737435327" stroke="#000000" stroke-width="1" fill="none"></path></g><g transform="translate(243.67608315476855 192.19405858942582) rotate(0 25.579106812955047 23.543125841795472)"><path d="M37.075229828909706 1.6300489148060393 C41.674173678666996 3.4279605556890367, 45.363986870394434 9.64379235588817, 47.71001494498891 14.374314777997975 C50.05604301958339 19.10483720010778, 52.21868342281381 25.366978011733202, 51.15139827647657 30.01318344746488 C50.08411313013933 34.659388883196556, 45.945072072359594 39.37632077932462, 41.306304066965474 42.25154739238803 C36.667536061571354 45.12677400545143, 29.007798943952583 47.75376038630502, 23.31879024411184 47.26454312584531 C17.6297815442711 46.7753258653856, 10.929354091897466 42.95854823741895, 7.172251867921034 39.316243829629784 C3.4151496439446025 35.673939421840615, 1.2605273439522182 30.206889332483577, 0.7761769002532546 25.41071667911031 C0.291826456554291 20.61454402573704, 1.2045098649944648 14.738991154253451, 4.2661492057272525 10.539207909390182 C7.32778854646004 6.339424664526913, 13.02555678327369 1.3275917112723992, 19.146012944649982 0.21201720993069273 C25.266469106026275 -0.9035572914110137, 36.80897330425678 2.5766265964614226, 40.988886173985016 3.8457609013399434 C45.16879904371325 5.114895206218464, 44.63937807827599 7.291098702917937, 44.2254901630194 7.826823039201816 M31.900048809670206 1.7936831229386527 C36.869640532262 2.6343845593103157, 43.26611983317368 5.541419140621842, 46.217071037277 9.676891614557073 C49.16802224138032 13.812364088492306, 50.02736713041119 21.61528956448433, 49.60575603429013 26.606517966550044 C49.18414493816907 31.59774636861576, 47.38541236940431 36.07003439230432, 43.68740446055061 39.62426202695136 C39.98939655169691 43.17848966159839, 33.033117559115894 47.57986730225242, 27.417708581167965 47.93188377443225 C21.802299603220032 48.283900246612085, 14.657444013988854 44.91422993651338, 9.994950592863011 41.736360860030366 C5.332457171737169 38.55849178354735, 0.8580942584550793 33.74189015696269, -0.5572519455870903 28.86466931553418 C-1.97259814962926 23.98744847410567, -1.1837590765269232 17.066966806720075, 1.5028733686099933 12.47303581145931 C4.18950581374691 7.879104816198544, 10.542592520002085 3.4072379253325082, 15.56254272523441 1.3010833439695872 C20.582492930466735 -0.8050712373933337, 28.916206335248688 -0.1222678948392204, 31.622574600003947 -0.16389167671821525 C34.328942864759206 -0.2055154585972101, 31.87360800288569 0.7026340481175677, 31.80075231376597 1.0513406526956182" stroke="#000000" stroke-width="2" fill="none"></path></g><g><g transform="translate(266.4432439480802 238.95749914383077) rotate(0 -1.1276772731092706 29.094173077618052)"><path d="M0.060281189158558846 1.033281872794032 C-0.07336764331960932 10.522088410774687, -1.4966468049240238 48.42007497062196, -1.760963133129731 57.65819524456453 M-1.3672099158726634 0.5301509106718005 C-1.5093992565018859 9.600088489106367, -2.2477731579010314 46.349890417486776, -2.3156357353771777 55.837012158061235" stroke="#000000" stroke-width="2" fill="none"></path></g></g><g><g transform="translate(263.91552083184183 297.3892402348579) rotate(0 11.643844495762892 17.947278942818457)"><path d="M1.033281872794032 0.7492816407233476 C4.7742346808229685 6.705485997342455, 19.68080632086337 30.31795435470039, 23.17107286485422 35.79750732887321 M0.1166161266714334 0.09705055676400653 C3.6863109381412276 5.728503006988157, 19.06342611055315 28.487822470036093, 22.524419063502435 34.19186227682763" stroke="#000000" stroke-width="2" fill="none"></path></g></g><g><g transform="translate(260.54245139565637 294.9501189152393) rotate(0 -9.015919771607855 16.379764933711385)"><path d="M0.7492816407233476 0.574079356715083 C-2.319099460310586 5.688340134171934, -14.804972933564821 26.243467824897625, -18.350005417045043 31.718846537535143 M-0.3164842272363604 -0.1701329263485969 C-3.4620062716783067 5.61364860294217, -15.792300475404152 27.625695698532173, -18.781121183939117 32.92966279377143" stroke="#000000" stroke-width="2" fill="none"></path></g></g><g><g transform="translate(234.45176532135338 271.03985417247213) rotate(0 15.527822757067725 -9.668563255867411)"><path d="M0.574079356715083 0.9846279937773941 C5.277526991765518 -2.527211363928515, 24.189402112865544 -17.13376425364116, 29.253967683096644 -20.321754505512107 M-0.5836677103489638 0.4559537451714277 C4.426911639522333 -3.0208794947137414, 26.414434329325058 -16.003643536503105, 31.63931322448444 -19.407126175191987" stroke="#000000" stroke-width="2" fill="none"></path></g></g><g><g transform="translate(263.8611316027077 250.9129505254341) rotate(0 11.158946097849139 12.96488554743064)"><path d="M0.9846279937773941 -0.6221123713999986 C4.224133656832769 3.707521646857676, 16.62296085016526 22.102061688604042, 20.186315619055595 26.55188346626113 M0.04241896117106081 1.6656746882759035 C3.564541705034121 5.634416374337342, 18.595885910128278 21.26763116343154, 22.275473234527226 24.99913989737506" stroke="#000000" stroke-width="2" fill="none"></path></g></g><g transform="translate(64.37983171333553 193.3164114852998) rotate(0 21.517207337788022 23.610752476823336)"><path d="M32.3965501676168 3.3953811363587896 C36.469015719658195 5.3027443394803955, 39.74751752145027 10.461433726142634, 41.33288557359478 15.090183553608925 C42.91825362573929 19.718933381075217, 43.262288124298784 26.408817992642604, 41.908758480483854 31.16788010115654 C40.555228836668924 35.92694220967048, 37.097064747441095 40.98590429150066, 33.21170771070521 43.64455620469255 C29.326350673969333 46.30320811788444, 23.062722421742905 47.67060062289542, 18.59661626006858 47.1197915803079 C14.130510098394254 46.56898253772037, 9.417740458350135 44.07533532847144, 6.41507074065926 40.339701949167406 C3.412401022968386 36.60406856986337, 0.9088859817328618 29.864196969102743, 0.5805979539233341 24.70599130448368 C0.2523099261138064 19.547785639864614, 1.655771705607194 13.535648557354858, 4.445342573802094 9.390467961453012 C7.234913441996994 5.245287365551168, 12.352317020183456 0.6426858900449682, 17.318023163092732 -0.16509227092738854 C22.28372930600201 -0.9728704318997453, 31.12340582041406 3.6069222374479613, 34.23957943125775 4.543798995618872 C37.35575304210144 5.4806757537897814, 36.23027378227445 5.296087961310616, 36.015064828154884 5.4561682780980725 M13.866927786241645 1.3499127326248974 C18.21381326508193 -0.7743427629148547, 24.42954463514269 0.9135102235260335, 28.73903965208859 2.1895098915672726 C33.04853466903449 3.4655095596085115, 37.34774983232161 5.023378625707801, 39.72389788791703 9.005910740872332 C42.100045943512455 12.988442856036864, 43.398574106570514 20.742430171116094, 42.99592798566114 26.084702582554456 C42.593281864751766 31.42697499399282, 40.39529289841325 37.50480656135241, 37.308021162460804 41.059545209502495 C34.220749426508355 44.61428385765258, 29.165875508488064 46.88174106814184, 24.47229756994646 47.41313447145495 C19.778719631404854 47.94452787476806, 12.962828150684656 47.17798910717409, 9.146553531211183 44.247905629381165 C5.330278911737709 41.31782215158824, 2.990322705827781 35.16764883727339, 1.5746498531056226 29.832633604697374 C0.15897700038346407 24.497618372121355, -1.2138826623609689 16.959762033930208, 0.6525164148782316 12.237814233925047 C2.518915492117432 7.515866433919887, 10.913306996759095 3.3085963613650335, 12.773044316540826 1.5009468046664125 C14.632781636322557 -0.30670275203220854, 11.474219985507746 0.7203855302155393, 11.810940333568613 1.3919168937333204" stroke="#000000" stroke-width="2" fill="none"></path></g><g><g transform="translate(83.9715529606708 240.52876993218115) rotate(0 -1.6837931081569195 28.445659270846136)"><path d="M-0.1827437181025744 1.1779834706336259 C-0.6984267440907065 10.58809080542402, -2.958561098809989 47.02447338259601, -3.184842498211207 56.140497694315115 M-1.7378228994458915 0.7508208473771809 C-1.860077375667483 9.870453962845373, -0.8545074085254986 45.68015710524106, -0.871829710064473 54.5407943253235" stroke="#000000" stroke-width="2" fill="none"></path></g></g><g><g transform="translate(81.33664882148219 297.11833415356386) rotate(0 11.581220204096098 16.877332130442483)"><path d="M1.1779834706336259 -0.759889044240117 C5.0355335805074315 5.022993792964475, 19.261687258013062 28.81327714211472, 22.825154344815576 34.51455330512498 M0.3372860633768142 1.4555652621947228 C4.151972916915361 6.926201540137039, 18.76017532348307 27.320685444969467, 22.399980260975475 32.856352259563394" stroke="#000000" stroke-width="2" fill="none"></path></g></g><g><g transform="translate(78.10583987085988 294.7029999775268) rotate(0 -8.617407433426138 16.2224453767642)"><path d="M-0.759889044240117 0.9959454853087661 C-3.6949606886624533 6.128227879165089, -14.77649526601992 26.875165474705277, -17.79317358463659 31.97167783377156 M1.0420304781943561 0.47321291975677005 C-1.9576767625033096 5.77062750717846, -14.816282620340209 24.799785080097493, -18.276845345046663 30.23213107926235" stroke="#000000" stroke-width="2" fill="none"></path></g></g><g><g transform="translate(62.60831428805841 250.92209475754908) rotate(0 10.99685733432193 10.957856363898145)"><path d="M0.9959454853087661 0.8845213394612073 C4.455287662351073 4.3729503461600725, 18.5104643906352 16.93760533922979, 21.93403653288747 20.17068499595307 M0.05967813575640313 0.30329109733924264 C3.3217634693510245 4.046630040823805, 17.88788833885238 18.069009730887352, 21.369019063529766 21.61242163045712" stroke="#000000" stroke-width="2" fill="none"></path></g></g><g><g transform="translate(85.25225586457941 271.09209821767445) rotate(0 15.132341232896238 -9.059562872665538)"><path d="M0.8845213394612073 0.7295771319419144 C6.07365720557681 -2.253232210756119, 25.44113963631348 -13.949628556672613, 30.374926152453497 -16.900910570879436 M-0.11024368666112427 0.06700118087232121 C4.971413079227123 -2.769455236525115, 24.365348370796006 -16.249806350622457, 29.331192072109058 -18.84870287727282" stroke="#000000" stroke-width="2" fill="none"></path></g></g><g><g transform="translate(115.65740427580363 205.5094171678909) rotate(0 -29.806186601232753 8.800864369716805)"><path d="M-11.401877714492406 -0.18226403184235096 C-13.36453332704036 1.0454602450815722, -17.9054125170845 7.581673699298342, -22.91144303641328 8.250867001004746 C-27.917473555742063 8.92006030271115, -37.22155208853846 2.250349828791654, -41.43806083046509 3.8328957783960718 C-45.65456957239172 5.41544172800049, -47.11196416137221 15.267375801885487, -48.21049548797309 17.746142698631253 M-12.477988449562366 -1.323556593898684 C-14.656680173822776 0.025019211073754377, -18.752785968209377 9.247814450373342, -23.684706057655152 9.751568634528896 C-28.616626147100927 10.25532281868445, -38.02135694723417 0.17001572790074904, -42.069508986237025 1.6989685110346393 C-46.11766102523988 3.22792129416853, -46.74934826623129 16.53925014904699, -47.97361829167232 18.925285333332237" stroke="#000000" stroke-width="2" fill="none"></path></g></g><g><g transform="translate(81.48419091438655 209.97879625463747) rotate(0 -21.27966444162655 8.777058238544896)"><path d="M-14.456713738462392 -4.08687598915224 C-14.854187223436963 -5.24079441113171, -14.64228395643654 -9.242864660493824, -15.77476927700626 -10.613728326963967 C-16.90725459757598 -11.98459199343411, -19.104522633178455 -13.925555813771311, -21.251625661880716 -12.312057987973095 C-23.398728690582978 -10.698560162174878, -28.241035154591387 -8.036952082968638, -28.657387449219822 -0.9327413721746658 C-29.073739743848257 6.171469338619305, -25.321901180748036 27.71490065934872, -23.749739429651317 30.31320627679073 C-22.1775776785546 32.91151189423274, -20.774754747142016 20.374801466435148, -19.22441694263951 14.65709233247738 C-17.674079138137007 8.93938319851961, -15.31862013064303 -0.6794434148290462, -14.447712602636281 -3.9930485269558895 M-16.01154108451909 -4.957697492106007 C-16.6505520784582 -6.558711141326993, -15.793338862536572 -11.594237015269494, -16.759538358330598 -12.602052934127636 C-17.725737854124624 -13.609868852985779, -19.879460009409414 -13.147643858206097, -21.808738059283243 -11.004593005254865 C-23.738016109157073 -8.861542152303633, -27.86302806613881 -6.186785388595744, -28.33520665757358 0.2562521835797573 C-28.807385249008348 6.699289755755259, -25.845397106859973 25.39305131005859, -24.641809607891854 27.653632427798144 C-23.438222108923735 29.9142135455377, -22.90469433112901 19.281142830073787, -21.113681663764872 13.81973889001708 C-19.322668996400733 8.358334949960373, -14.934655929878135 -1.813508292607338, -13.895733603707018 -5.114791212542103" stroke="#000000" stroke-width="2" fill="none"></path></g></g><g transform="translate(53.771441461717586 239.26724104479626) rotate(18.529685470617636 6.049512639137902 12.578976034201787)"><path d="M-0.07052698076624875 0.25782473920834414 C4.765890355158595 -0.05281338643986032, 8.875187628967272 0.1299289785208506, 13.210873535413322 1.1708909111615304 M0.21513397841243653 0.1388756026303949 C3.912503203478953 0.3354209579250103, 8.868850053802607 0.4293755811386573, 11.69052500386509 0.2746524559337563 M12.712348268290919 1.7140510212630033 C10.840390608727034 8.017147588707807, 13.663424358784255 12.716253601343041, 10.47386895205633 25.236929129839048 M12.934271639136535 0.17708510998636484 C12.291637418540944 8.864486651774712, 12.80679681685828 16.050737108663157, 11.14066902354167 24.34317979871492 M11.15535792618038 26.221371780155838 C9.322988999104332 25.279397719570493, 4.2241373253169705 24.94254855534683, 0.7376731393699958 25.946668631878026 M11.592218948710777 25.338730310252156 C10.074309478099615 24.657232322587404, 7.071939897146319 25.204294620929165, -0.007059719226851446 25.570758116432366 M1.7224325109273195 24.69768704104434 C-1.275108471841203 19.51975624430589, 0.022607132464064428 16.222576103695367, -1.1427824925631285 0.7463014852255583 M-0.4916863674297929 24.96530986487131 C1.1535205035523322 16.364889114925585, -0.6484644920512292 8.29536073711121, 0.06991846021264791 -0.9660070752725005" stroke="#000000" stroke-width="1" fill="none"></path></g><g transform="translate(436.3788087512062 194.55664544745287) rotate(0 22.051406097502877 24.19692681120864)"><path d="M17.071493031935155 0.8742316090004074 C21.281277963121063 -0.6181312183300693, 27.20995833604962 0.03189187255811099, 31.54259728081267 2.461058665944819 C35.87523622557572 4.890225459331527, 41.30145545225084 10.42430528146527, 43.06732670051346 15.449232369320654 C44.83319794877608 20.47415945717604, 43.723484291254415 27.818372044300574, 42.13782477038839 32.61062119307712 C40.55216524952237 37.40287034185367, 37.53683573622091 41.74246741838152, 33.55336957531733 44.20272726197994 C29.56990341441376 46.66298710557835, 22.84466916760134 48.10932784896406, 18.23702780496695 47.37218025466761 C13.629386442332562 46.63503266037117, 9.019681648363026 43.65573030352854, 5.907521399511008 39.779841696201274 C2.795361150658991 35.903953088874005, -0.33424118746655235 29.218859157121226, -0.43593368814515543 24.11684861070401 C-0.5376261888237585 19.014838064286796, 2.188380107266584 13.195029711760508, 5.29736639543939 9.167778417697978 C8.406352683612196 5.140527123635447, 15.594332383656035 1.4675562321931637, 18.21798404089168 -0.046659153671171794 C20.841635698127323 -1.5608745395355073, 20.778101043635868 -0.26231419089063834, 21.03927633885326 0.08248610251196453 M25.726033361245012 -0.44267923500010653 C29.977342409584914 0.3840657313757925, 36.43145068700332 4.218788446173902, 39.65700145847422 8.646578794289612 C42.88255222994512 13.07436914240532, 45.48946248702391 20.85383629071196, 45.07933799007039 26.124062853694152 C44.66921349311688 31.394289416676344, 40.38659519421296 36.81319345363546, 37.196254476753126 40.26793817218277 C34.00591375929329 43.72268289073007, 30.15310296511817 45.882170990660526, 25.937293685311403 46.852531164977975 C21.721484405504636 47.822891339295424, 16.038102460878367 48.829030189712775, 11.901398797912526 46.090099218087445 C7.7646951349466855 43.351168246462116, 2.6036306662355635 35.37766945708809, 1.117071707516363 30.418945335225988 C-0.36948725120283776 25.460221213363884, 1.0190817243771224 20.80188226981837, 2.982045045597321 16.337754486914825 C4.945008366817519 11.87362670401128, 9.136363641129327 6.1336374065325945, 12.894851634837554 3.634178637804709 C16.65333962854578 1.134719869076823, 23.21151264238233 1.9707885788621096, 25.53297300784668 1.3410018745475085 C27.854433373311032 0.7112151702329074, 26.589232561098505 -0.6221955931763592, 26.823613827623667 -0.1445415880828982" stroke="#000000" stroke-width="2" fill="none"></path></g><g><g transform="translate(455.97052405048544 243.00473016388105) rotate(0 -1.4489547335818997 27.789789550329033)"><path d="M-0.8607008356601 -0.4900381486862898 C-1.2899642708803283 9.053982017023658, -2.3441652118688157 47.79756628713656, -2.71663200097088 57.37249122274397 M0.8882924962788818 -1.7929121220856905 C0.29309568570007205 7.411146109534599, -2.9412147323315674 46.26016402966429, -3.7862019634426036 55.700832750176176" stroke="#000000" stroke-width="2" fill="none"></path></g></g><g><g transform="translate(453.61701765785983 301.0363982449376) rotate(0 11.37000177387415 16.836498264559395)"><path d="M-0.4900381486862898 -0.2314752358943224 C3.363573762638792 5.5544092334995865, 19.345525015212218 28.26457379097253, 23.23004169643476 33.854605980703354 M1.4535530939139427 -1.3986036800779402 C5.21481403413631 4.613554690182478, 19.260927100564906 29.168635850624597, 22.732912509018476 35.07160020919678" stroke="#000000" stroke-width="2" fill="none"></path></g></g><g><g transform="translate(450.6349087149147 298.55889720970026) rotate(0 -9.991609165439172 16.36392210444683)"><path d="M-0.2314752358943224 0.8588881451636554 C-3.3799822791149627 6.3511684587544135, -16.407383772100218 27.35675503608879, -19.751743094983944 32.46364373285826 M-1.8121384640783071 0.2642004760354757 C-4.486760643445493 5.43274385973274, -14.660517369623191 25.194869004610148, -17.36021958133901 30.57517088745292" stroke="#000000" stroke-width="2" fill="none"></path></g></g><g><g transform="translate(434.45523112158526 254.04508194642358) rotate(0 11.013733888543015 10.011034264687169)"><path d="M0.8588881451636554 -0.6103448051959276 C4.636694850786536 2.7119027919761862, 18.784386996249403 16.018498330410583, 22.176802085050994 19.702010347138362 M-0.14933430796489122 1.683620226737112 C3.5523464307514416 5.129319277952614, 18.075305307595723 17.666305328734232, 21.462858524797163 20.632413334570096" stroke="#000000" stroke-width="2" fill="none"></path></g></g><g><g transform="translate(457.4662988813752 274.3618174092726) rotate(0 15.8270877116463 -8.866646630230662)"><path d="M-0.6103448051959276 0.4459083873778582 C4.454832393437312 -2.727106578122638, 24.733146337716207 -15.200983053798785, 30.15958795590511 -18.17920164783932 M1.270085442736745 -0.36559365458786486 C6.706325058400319 -3.4546761488130313, 27.223757678864825 -14.310934469009748, 32.26452022848836 -16.9134717819605" stroke="#000000" stroke-width="2" fill="none"></path></g></g><g><g transform="translate(487.60062151195757 207.1913682392999) rotate(0 -29.001517418326898 8.915892201421343)"><path d="M-10.790301039297267 -1.1562328834086657 C-12.91783534216943 0.4721376293327635, -18.058547612810262 8.55027950762115, -23.142527098744452 9.159878271252648 C-28.226506584678642 9.769477034884146, -37.28247683846707 1.0383849801625429, -41.29417795490241 2.501359698380319 C-45.30587907133775 3.9643344165980947, -45.946899708465594 15.474125102245267, -47.212733797356485 17.937726580559303 M-12.015337865263358 0.8511409074626863 C-14.421328733873246 2.1826266945142274, -19.375694685196258 6.963948363180231, -24.36226794771412 7.369357656401381 C-29.34884121023198 7.774766949622531, -38.25315014607588 1.347153395147931, -41.934777440370524 3.283596666789589 C-45.61640473466517 5.220039938431247, -45.596739948776474 16.655885055874492, -46.45203171348199 18.988017286251328" stroke="#000000" stroke-width="2" fill="none"></path></g></g><g><g transform="translate(453.1292388319621 211.932923106649) rotate(0 -21.22479561190346 7.674497925977448)"><path d="M-15.070043396853624 -4.741845933893813 C-15.107218755087693 -5.878078537147012, -13.51039808338386 -9.500409752424769, -14.747207468045298 -10.595818146335215 C-15.984016852706736 -11.691226540245662, -20.13163100033794 -12.827821780968893, -22.490899704822255 -11.314296297356487 C-24.85016840930657 -9.80077081374408, -28.399426061518078 -8.276888855910954, -28.902819694951177 -1.5146652446607813 C-29.406213328384275 5.247558366589392, -27.111487996369686 26.620803204087142, -25.51126150542086 29.259045370144552 C-23.91103501447203 31.89728753620196, -21.145244111076053 20.05483110174817, -19.30146074925822 14.314787751683683 C-17.457677387440384 8.574744401619194, -15.456722294268626 -2.0849611188385837, -14.44856133451384 -5.1812147302423845 M-13.476204389982637 -2.3991452645753752 C-13.562653510919649 -3.959177301536765, -14.253924884999813 -10.802650556113534, -15.363198797745053 -12.593294083195062 C-16.472472710490294 -14.38393761027659, -17.907465860692604 -15.112365960855472, -20.131847866454077 -13.143006427064538 C-22.35622987221555 -11.173646893273604, -28.111533366597776 -7.828612358040271, -28.709490832313897 -0.7771368804494606 C-29.307448298030017 6.27433859714135, -24.946659280598247 26.267742207107666, -23.7195926607508 29.165846438480322 C-22.49252604090335 32.06395066985298, -22.95262930731481 22.034023460748617, -21.347091113229215 16.611488507786483 C-19.74155291914362 11.188953554824348, -15.322360983816402 0.1698557204093576, -14.086363496237215 -3.369363279292477" stroke="#000000" stroke-width="2" fill="none"></path></g></g><g transform="translate(425.507048405786 241.64827714605644) rotate(18.529685470617636 6.199701374040842 12.891269041861278)"><path d="M0.6535353874177621 0.24621437337914065 C3.127113704804068 1.0647201345436592, 8.25570661492849 -0.6675267408609326, 11.617417408772194 -0.9524680980675866 M-0.49436615909611226 0.3416632295711257 C4.097808295192637 -0.436244930465526, 8.063073115557534 0.3979400908822448, 12.111919164958495 0.2915147136371299 M10.651994672823546 -1.135200785472989 C11.22888150733385 6.527923960694634, 11.704135029729938 13.664145554396438, 13.93072154860556 24.072358171796356 M13.389083760078845 0.892130115069449 C12.542390581566117 6.7343400405090765, 13.462107207971833 15.988515336126927, 13.232004391249118 26.296455419031833 M11.462558090345992 26.455767327750582 C10.637077677676636 25.88199607109357, 7.163944912250772 26.057557920251867, -1.2082729729538995 25.54850705265908 M12.134721795782516 25.712881274056336 C10.049744768036726 25.15997811672608, 6.477036533136767 25.208703420973944, 0.49768180253672345 25.538003925642396 M-1.0403790902346373 25.643473367547546 C-0.8987280992307035 17.92873558601417, 0.11700317585093101 7.214804612952477, -0.8160002063959837 -1.1459629405289888 M0.5649299090728164 25.514178937641834 C-0.02829304589330206 18.370652483935046, 0.38610779987276544 13.180900482437732, -0.4889561766758561 -0.40360432025045156" stroke="#000000" stroke-width="1" fill="none"></path></g><g stroke-opacity="0.8" fill-opacity="0.8" transform="translate(30.85206016074426 33.378031487968656) rotate(0 54 63)">
    <text x="0" y="27" font-family="Virgil, Segoe UI Emoji" font-size="25px" fill="#000000" text-anchor="start" style="white-space: pre;" direction="ltr">Value Vector</text><text x="0" y="52.4" font-family="Virgil, Segoe UI Emoji" font-size="20px" fill="#000000" text-anchor="start" style="white-space: pre;" direction="ltr">is part of</text>
  <text x="0" y="80.6" font-family="Virgil, Segoe UI Emoji" font-size="25px" fill="#000000" text-anchor="start" style="white-space: pre;" direction="ltr">Vectors</text>
  <!-- <text x="0" y="102.8" font-family="Virgil, Segoe UI Emoji" font-size="20px" fill="#000000" text-anchor="start" style="white-space: pre;" direction="ltr">as</text>
  <text x="0" y="128" font-family="Virgil, Segoe UI Emoji" font-size="20px" fill="#000000" text-anchor="start" style="white-space: pre;" direction="ltr">vectors</text> -->
  </g>
  <g stroke-opacity="0.8" fill-opacity="0.8" transform="translate(180.93979383819988 122.61588876161522) rotate(0 58 25)">
    <text x="0" y="18" font-family="Virgil, Segoe UI Emoji" font-size="20px" fill="#000000" text-anchor="start" style="white-space: pre;" direction="ltr"></text><text x="0" y="43" font-family="Virgil, Segoe UI Emoji" font-size="20px" fill="#000000" text-anchor="start" style="white-space: pre;" direction="ltr">What dose Value Vector do?</text></g><g stroke-opacity="0.8" fill-opacity="0.8" transform="translate(449.79210038581914 61.27051399867628) rotate(0 58.5 37.5)">
        <text x="0" y="35" font-family="Virgil, Segoe UI Emoji" font-size="20px" fill="#000000" text-anchor="start" style="white-space: pre;" direction="ltr">checking</text>
    <!-- <text x="0" y="43" font-family="Virgil, Segoe UI Emoji" font-size="20px" fill="#000000" text-anchor="start" style="white-space: pre;" direction="ltr">are checked for</text> -->
  <text x="0" y="85" font-family="Virgil, Segoe UI Emoji" font-size="25px" fill="#040202" text-anchor="start" style="white-space: pre;" direction="ltr">semantic similarity!</text>
  
    <!-- <text x="0" y="90" font-family="Virgil, Segoe UI Emoji" font-size="20px" fill="#000000" text-anchor="start" style="white-space: pre;" direction="ltr">that occur in the</text>
  <text x="0" y="115" font-family="Virgil, Segoe UI Emoji" font-size="25px" fill="#000000" text-anchor="start" style="white-space: pre;" direction="ltr">World!</text> -->
  
  </g></svg>